<svg width="128" height="128" viewBox="0 0 128 128" fill="none" xmlns="http://www.w3.org/2000/svg">
<mask id="path-1-inside-1_1_496" fill="white">
<path d="M75.5798 126C62.334 126 49.7266 117.824 44.939 104.679C38.8747 87.847 47.4924 69.2514 64.4087 62.9995C72.5476 59.9536 81.4845 60.4346 89.3043 64.1216C97.1241 67.8087 103.188 74.2209 106.061 82.3966C112.125 99.2288 103.508 117.824 86.5913 124.076C83.0804 125.359 79.2503 126 75.5798 126ZM75.5798 62.6789C72.0689 62.6789 68.3984 63.3201 65.047 64.6025C48.9287 70.3736 40.6302 88.1676 46.5349 104.198C52.4396 120.229 70.1538 128.405 86.2721 122.634C94.0919 119.748 100.316 114.137 103.667 106.603C107.178 99.0685 107.497 90.7325 104.625 83.0378C101.752 75.3431 96.1666 69.0911 88.666 65.5644C84.5167 63.6407 80.0482 62.6789 75.5798 62.6789Z"/>
</mask>
<path d="M75.5798 126C62.334 126 49.7266 117.824 44.939 104.679C38.8747 87.847 47.4924 69.2514 64.4087 62.9995C72.5476 59.9536 81.4845 60.4346 89.3043 64.1216C97.1241 67.8087 103.188 74.2209 106.061 82.3966C112.125 99.2288 103.508 117.824 86.5913 124.076C83.0804 125.359 79.2503 126 75.5798 126ZM75.5798 62.6789C72.0689 62.6789 68.3984 63.3201 65.047 64.6025C48.9287 70.3736 40.6302 88.1676 46.5349 104.198C52.4396 120.229 70.1538 128.405 86.2721 122.634C94.0919 119.748 100.316 114.137 103.667 106.603C107.178 99.0685 107.497 90.7325 104.625 83.0378C101.752 75.3431 96.1666 69.0911 88.666 65.5644C84.5167 63.6407 80.0482 62.6789 75.5798 62.6789Z" fill="url(#paint0_linear_1_496)"/>
<path d="M44.939 104.679L42.1166 105.696L42.1202 105.706L44.939 104.679ZM64.4087 62.9995L65.4487 65.8135L65.4601 65.8092L64.4087 62.9995ZM106.061 82.3966L103.231 83.3911L103.235 83.4023L103.239 83.4134L106.061 82.3966ZM86.5913 124.076L87.6206 126.894L87.6313 126.89L86.5913 124.076ZM65.047 64.6025L66.0583 67.427L66.0889 67.416L66.1192 67.4044L65.047 64.6025ZM86.2721 122.634L87.2834 125.458L87.2971 125.453L87.3107 125.448L86.2721 122.634ZM103.667 106.603L100.948 105.336L100.937 105.36L100.926 105.384L103.667 106.603ZM88.666 65.5644L89.9425 62.8495L89.9351 62.8461L89.9278 62.8427L88.666 65.5644ZM75.5798 123C63.5349 123 52.0938 115.557 47.7579 103.653L42.1202 105.706C47.3595 120.091 61.1332 129 75.5798 129V123ZM47.7614 103.662C42.2565 88.3829 50.0745 71.4955 65.4487 65.8134L63.3687 60.1855C44.9104 67.0074 35.4928 87.3111 42.1166 105.696L47.7614 103.662ZM65.4601 65.8092C72.8164 63.0563 80.9132 63.4819 88.0249 66.8351L90.5837 61.4081C82.0559 57.3872 72.2789 56.851 63.3572 60.1898L65.4601 65.8092ZM88.0249 66.8351C95.1666 70.2025 100.641 76.0216 103.231 83.3911L108.891 81.4021C105.736 72.4203 99.0816 65.4149 90.5837 61.4081L88.0249 66.8351ZM103.239 83.4134C108.743 98.6928 100.926 115.58 85.5513 121.262L87.6313 126.89C106.09 120.068 115.507 99.7647 108.883 81.3797L103.239 83.4134ZM85.562 121.258C82.3959 122.415 78.9155 123 75.5798 123V129C79.5851 129 83.7649 128.303 87.6206 126.894L85.562 121.258ZM75.5798 59.6789C71.7191 59.6789 67.6838 60.3814 63.9748 61.8007L66.1192 67.4044C69.1129 66.2588 72.4186 65.6789 75.5798 65.6789V59.6789ZM64.0358 61.7781C46.3476 68.1112 37.2387 87.6397 43.7198 105.235L49.35 103.161C44.0216 88.6955 51.5098 72.6359 66.0583 67.427L64.0358 61.7781ZM43.7198 105.235C50.1998 122.828 69.6325 131.778 87.2834 125.458L85.2609 119.809C70.6751 125.031 54.6794 117.63 49.35 103.161L43.7198 105.235ZM87.3107 125.448C95.844 122.299 102.708 116.14 106.408 107.822L100.926 105.384C97.9232 112.135 92.3399 117.197 85.2336 119.819L87.3107 125.448ZM106.386 107.87C110.236 99.6093 110.59 90.439 107.435 81.9886L101.814 84.087C104.405 91.0261 104.12 98.5276 100.948 105.336L106.386 107.87ZM107.435 81.9886C104.299 73.5883 98.1796 66.7226 89.9425 62.8495L87.3894 68.2792C94.1535 71.4597 99.205 77.0979 101.814 84.087L107.435 81.9886ZM89.9278 62.8427C85.3783 60.7334 80.4787 59.6789 75.5798 59.6789V65.6789C79.6178 65.6789 83.6551 66.548 87.4041 68.2861L89.9278 62.8427Z" fill="url(#paint1_linear_1_496)" mask="url(#path-1-inside-1_1_496)"/>
<mask id="path-3-inside-2_1_496" fill="white">
<path d="M52.4203 67C47.7996 67 43.0196 66.0372 38.7175 63.9511C30.9101 60.2603 24.8554 53.8415 21.9874 45.6575C18.96 37.4735 19.438 28.6477 23.1027 20.7847C26.7674 12.9216 33.3001 6.98426 41.4262 3.93533C49.5523 1.04687 58.4751 1.36781 66.2825 5.05862C74.0899 8.74943 80.1446 15.1682 83.0126 23.3522C86.04 31.5361 85.562 40.362 81.8973 48.225C78.2326 56.088 71.6999 62.0254 63.5738 65.0744C59.9091 66.3581 56.085 67 52.4203 67ZM52.4203 3.61439C48.915 3.61439 45.2503 4.25627 41.9042 5.54003C34.0968 8.42848 27.8827 14.0449 24.5367 21.587C20.872 28.9686 20.5533 37.3131 23.4214 45.0156C26.2894 52.7182 31.8661 58.9765 39.3549 62.5068C46.8436 66.0372 55.2884 66.3581 62.9364 63.4697C70.7439 60.5812 76.9579 54.9648 80.304 47.4227C83.65 39.8806 84.128 31.5361 81.26 23.8336C78.3919 16.131 72.8152 9.87271 65.3265 6.34238C61.3431 4.57721 56.8817 3.61439 52.4203 3.61439Z"/>
</mask>
<path d="M52.4203 67C47.7996 67 43.0196 66.0372 38.7175 63.9511C30.9101 60.2603 24.8554 53.8415 21.9874 45.6575C18.96 37.4735 19.438 28.6477 23.1027 20.7847C26.7674 12.9216 33.3001 6.98426 41.4262 3.93533C49.5523 1.04687 58.4751 1.36781 66.2825 5.05862C74.0899 8.74943 80.1446 15.1682 83.0126 23.3522C86.04 31.5361 85.562 40.362 81.8973 48.225C78.2326 56.088 71.6999 62.0254 63.5738 65.0744C59.9091 66.3581 56.085 67 52.4203 67ZM52.4203 3.61439C48.915 3.61439 45.2503 4.25627 41.9042 5.54003C34.0968 8.42848 27.8827 14.0449 24.5367 21.587C20.872 28.9686 20.5533 37.3131 23.4214 45.0156C26.2894 52.7182 31.8661 58.9765 39.3549 62.5068C46.8436 66.0372 55.2884 66.3581 62.9364 63.4697C70.7439 60.5812 76.9579 54.9648 80.304 47.4227C83.65 39.8806 84.128 31.5361 81.26 23.8336C78.3919 16.131 72.8152 9.87271 65.3265 6.34238C61.3431 4.57721 56.8817 3.61439 52.4203 3.61439Z" fill="url(#paint2_linear_1_496)"/>
<path d="M38.7175 63.9511L40.0265 61.2517L40.0131 61.2452L39.9997 61.2389L38.7175 63.9511ZM21.9874 45.6575L24.8185 44.6653L24.81 44.6409L24.801 44.6167L21.9874 45.6575ZM41.4262 3.93533L40.4214 1.10859L40.3968 1.11735L40.3723 1.12653L41.4262 3.93533ZM83.0126 23.3522L80.1815 24.3444L80.19 24.3688L80.199 24.393L83.0126 23.3522ZM63.5738 65.0744L64.5656 67.9057L64.5967 67.8948L64.6277 67.8832L63.5738 65.0744ZM41.9042 5.54003L42.9452 8.35365L42.962 8.3474L42.9788 8.34095L41.9042 5.54003ZM24.5367 21.587L27.2238 22.921L27.2526 22.8629L27.279 22.8036L24.5367 21.587ZM62.9364 63.4697L61.8955 60.656L61.886 60.6596L61.8765 60.6631L62.9364 63.4697ZM65.3265 6.34238L66.6057 3.62879L66.574 3.61383L66.5419 3.59961L65.3265 6.34238ZM52.4203 64C48.2025 64 43.8773 63.119 40.0265 61.2517L37.4086 66.6504C42.1618 68.9553 47.3968 70 52.4203 70V64ZM39.9997 61.2389C32.8714 57.8691 27.4046 52.0446 24.8185 44.6653L19.1562 46.6497C22.3062 55.6383 28.9488 62.6514 37.4354 66.6633L39.9997 61.2389ZM24.801 44.6167C22.061 37.2094 22.4838 29.2142 25.8219 22.052L20.3835 19.5173C16.3922 28.0812 15.859 37.7377 19.1737 46.6983L24.801 44.6167ZM25.8219 22.052C29.146 14.9198 35.0699 9.52444 42.4801 6.74413L40.3723 1.12653C31.5304 4.44407 24.3888 10.9235 20.3835 19.5173L25.8219 22.052ZM42.431 6.76206C49.8397 4.12861 57.9384 4.43245 65.0003 7.77083L67.5646 2.34641C59.0117 -1.69683 49.2649 -2.03487 40.4214 1.10859L42.431 6.76206ZM65.0003 7.77083C72.1286 11.1406 77.5954 16.9651 80.1815 24.3444L85.8438 22.36C82.6938 13.3713 76.0512 6.35826 67.5646 2.34641L65.0003 7.77083ZM80.199 24.393C82.939 31.8003 82.5162 39.7955 79.1781 46.9577L84.6165 49.4923C88.6078 40.9285 89.141 31.272 85.8263 22.3114L80.199 24.393ZM79.1781 46.9577C75.854 54.0899 69.9301 59.4852 62.5199 62.2656L64.6277 67.8832C73.4696 64.5656 80.6112 58.0862 84.6165 49.4923L79.1781 46.9577ZM62.582 62.2431C59.231 63.4169 55.742 64 52.4203 64V70C56.428 70 60.5871 69.2993 64.5656 67.9057L62.582 62.2431ZM52.4203 0.614388C48.5643 0.614388 44.5339 1.3179 40.8296 2.7391L42.9788 8.34095C45.9666 7.19464 49.2656 6.61439 52.4203 6.61439V0.614388ZM40.8633 2.72641C32.3409 5.87939 25.4876 12.0461 21.7945 20.3704L27.279 22.8036C30.2779 16.0438 35.8527 10.9776 42.9452 8.35365L40.8633 2.72641ZM21.8496 20.253C17.8028 28.4044 17.4636 37.6123 20.6099 46.0625L26.2328 43.9688C23.6431 37.0138 23.9413 29.5329 27.2238 22.921L21.8496 20.253ZM20.6099 46.0625C23.7402 54.4692 29.8494 61.3424 38.0756 65.2204L40.6341 59.7933C33.8828 56.6106 28.8386 50.9672 26.2328 43.9688L20.6099 46.0625ZM38.0756 65.2204C46.2979 69.0966 55.5867 69.4523 63.9964 66.2762L61.8765 60.6631C54.99 63.264 47.3893 62.9778 40.6341 59.7933L38.0756 65.2204ZM63.9774 66.2833C72.4998 63.1303 79.3531 56.9636 83.0462 48.6393L77.5617 46.2061C74.5627 52.9659 68.9879 58.0321 61.8955 60.656L63.9774 66.2833ZM83.0462 48.6393C86.6846 40.4382 87.2341 31.2808 84.0714 22.7868L78.4485 24.8804C81.0219 31.7915 80.6154 39.3229 77.5617 46.2061L83.0462 48.6393ZM84.0714 22.7868C80.9412 14.38 74.8319 7.50678 66.6057 3.62879L64.0472 9.05596C70.7985 12.2387 75.8427 17.882 78.4485 24.8804L84.0714 22.7868ZM66.5419 3.59961C62.1789 1.66621 57.3038 0.614388 52.4203 0.614388V6.61439C56.4597 6.61439 60.5073 7.4882 64.111 9.08514L66.5419 3.59961Z" fill="url(#paint3_linear_1_496)" mask="url(#path-3-inside-2_1_496)"/>
<mask id="path-5-inside-3_1_496" fill="white">
<path d="M63.5 65C45.6569 65 31 50.3951 31 32.5802C31 14.7654 45.6569 0 63.5 0C81.3431 0 96 14.6049 96 32.4198C96 50.2346 81.3431 65 63.5 65ZM63.5 1.60494C46.4534 1.60494 32.5931 15.4074 32.5931 32.5802C32.5931 49.7531 46.4534 63.3951 63.5 63.3951C80.5466 63.3951 94.4069 49.5926 94.4069 32.4198C94.4069 15.2469 80.5466 1.60494 63.5 1.60494Z"/>
</mask>
<path d="M63.5 65C45.6569 65 31 50.3951 31 32.5802C31 14.7654 45.6569 0 63.5 0C81.3431 0 96 14.6049 96 32.4198C96 50.2346 81.3431 65 63.5 65ZM63.5 1.60494C46.4534 1.60494 32.5931 15.4074 32.5931 32.5802C32.5931 49.7531 46.4534 63.3951 63.5 63.3951C80.5466 63.3951 94.4069 49.5926 94.4069 32.4198C94.4069 15.2469 80.5466 1.60494 63.5 1.60494Z" fill="url(#paint4_linear_1_496)"/>
<path d="M63.5 62C47.3058 62 34 48.7303 34 32.5802H28C28 52.0598 44.008 68 63.5 68V62ZM34 32.5802C34 16.411 47.325 3 63.5 3V-3C43.9887 -3 28 13.1199 28 32.5802H34ZM63.5 3C79.6942 3 93 16.2697 93 32.4198H99C99 12.9402 82.992 -3 63.5 -3V3ZM93 32.4198C93 48.589 79.675 62 63.5 62V68C83.0113 68 99 51.8801 99 32.4198H93ZM63.5 -1.39506C44.7959 -1.39506 29.5931 13.7512 29.5931 32.5802H35.5931C35.5931 17.0636 48.111 4.60494 63.5 4.60494V-1.39506ZM29.5931 32.5802C29.5931 51.4296 44.8163 66.3951 63.5 66.3951V60.3951C48.0906 60.3951 35.5931 48.0766 35.5931 32.5802H29.5931ZM63.5 66.3951C82.2041 66.3951 97.4069 51.2488 97.4069 32.4198H91.4069C91.4069 47.9364 78.889 60.3951 63.5 60.3951V66.3951ZM97.4069 32.4198C97.4069 13.5704 82.1837 -1.39506 63.5 -1.39506V4.60494C78.9094 4.60494 91.4069 16.9234 91.4069 32.4198H97.4069Z" fill="url(#paint5_linear_1_496)" mask="url(#path-5-inside-3_1_496)"/>
<mask id="path-7-inside-4_1_496" fill="white">
<path d="M63.5 128C45.6569 128 31 113.395 31 95.5803C31 77.7654 45.6569 63 63.5 63C81.3431 63 96 77.6049 96 95.4197C96 113.235 81.3431 128 63.5 128ZM63.5 64.6049C46.4534 64.6049 32.5931 78.4074 32.5931 95.5803C32.5931 112.753 46.4534 126.395 63.5 126.395C80.5466 126.395 94.4069 112.593 94.4069 95.4197C94.4069 78.2469 80.5466 64.6049 63.5 64.6049Z"/>
</mask>
<path d="M63.5 128C45.6569 128 31 113.395 31 95.5803C31 77.7654 45.6569 63 63.5 63C81.3431 63 96 77.6049 96 95.4197C96 113.235 81.3431 128 63.5 128ZM63.5 64.6049C46.4534 64.6049 32.5931 78.4074 32.5931 95.5803C32.5931 112.753 46.4534 126.395 63.5 126.395C80.5466 126.395 94.4069 112.593 94.4069 95.4197C94.4069 78.2469 80.5466 64.6049 63.5 64.6049Z" fill="url(#paint6_linear_1_496)"/>
<path d="M63.5 125C47.3058 125 34 111.73 34 95.5803H28C28 115.06 44.008 131 63.5 131V125ZM34 95.5803C34 79.411 47.325 66 63.5 66V60C43.9887 60 28 76.1199 28 95.5803H34ZM63.5 66C79.6942 66 93 79.2697 93 95.4197H99C99 75.9401 82.992 60 63.5 60V66ZM93 95.4197C93 111.589 79.675 125 63.5 125V131C83.0113 131 99 114.88 99 95.4197H93ZM63.5 61.6049C44.7959 61.6049 29.5931 76.7512 29.5931 95.5803H35.5931C35.5931 80.0636 48.111 67.6049 63.5 67.6049V61.6049ZM29.5931 95.5803C29.5931 114.43 44.8163 129.395 63.5 129.395V123.395C48.0906 123.395 35.5931 111.077 35.5931 95.5803H29.5931ZM63.5 129.395C82.2041 129.395 97.4069 114.249 97.4069 95.4197H91.4069C91.4069 110.936 78.889 123.395 63.5 123.395V129.395ZM97.4069 95.4197C97.4069 76.5704 82.1837 61.6049 63.5 61.6049V67.6049C78.9094 67.6049 91.4069 79.9234 91.4069 95.4197H97.4069Z" fill="url(#paint7_linear_1_496)" mask="url(#path-7-inside-4_1_496)"/>
<mask id="path-9-inside-5_1_496" fill="white">
<path d="M52.587 126C48.756 126 45.0847 125.358 41.4134 124.074C24.4934 117.977 15.8738 99.2015 21.9394 82.3522C24.9723 74.1682 30.8783 67.7494 38.6998 64.0586C46.5213 60.3678 55.4602 60.0469 63.6009 62.9353C71.7417 65.8238 78.2862 71.9216 81.9575 79.7847C85.6289 87.6477 85.9481 96.4735 83.0749 104.657C80.0421 112.841 74.136 119.26 66.3145 122.951C62.0047 125.037 57.216 126 52.587 126ZM23.5357 82.9941C17.6296 99.0411 25.93 116.693 42.0519 122.63C49.8734 125.519 58.1738 125.037 65.676 121.667C73.1783 118.137 78.9247 112.039 81.6383 104.176C84.5115 96.4735 84.0326 87.9686 80.6806 80.587C77.3285 73.2054 70.9436 67.4285 63.2817 64.54C55.4602 61.6516 47.0002 61.9725 39.4979 65.5028C31.9957 69.0332 26.2493 75.131 23.5357 82.9941Z"/>
</mask>
<path d="M52.587 126C48.756 126 45.0847 125.358 41.4134 124.074C24.4934 117.977 15.8738 99.2015 21.9394 82.3522C24.9723 74.1682 30.8783 67.7494 38.6998 64.0586C46.5213 60.3678 55.4602 60.0469 63.6009 62.9353C71.7417 65.8238 78.2862 71.9216 81.9575 79.7847C85.6289 87.6477 85.9481 96.4735 83.0749 104.657C80.0421 112.841 74.136 119.26 66.3145 122.951C62.0047 125.037 57.216 126 52.587 126ZM23.5357 82.9941C17.6296 99.0411 25.93 116.693 42.0519 122.63C49.8734 125.519 58.1738 125.037 65.676 121.667C73.1783 118.137 78.9247 112.039 81.6383 104.176C84.5115 96.4735 84.0326 87.9686 80.6806 80.587C77.3285 73.2054 70.9436 67.4285 63.2817 64.54C55.4602 61.6516 47.0002 61.9725 39.4979 65.5028C31.9957 69.0332 26.2493 75.131 23.5357 82.9941Z" fill="url(#paint8_linear_1_496)"/>
<path d="M41.4134 124.074L40.3963 126.897L40.4097 126.902L40.4232 126.906L41.4134 124.074ZM21.9394 82.3522L19.1264 81.3097L19.1215 81.3229L19.1168 81.336L21.9394 82.3522ZM83.0749 104.657L85.8879 105.7L85.8969 105.676L85.9055 105.651L83.0749 104.657ZM66.3145 122.951L65.0343 120.238L65.0208 120.244L65.0075 120.251L66.3145 122.951ZM23.5357 82.9941L26.351 84.0303L26.3616 84.0016L26.3715 83.9727L23.5357 82.9941ZM42.0519 122.63L43.0912 119.816L43.0887 119.815L42.0519 122.63ZM65.676 121.667L66.9053 124.404L66.9294 124.393L66.9534 124.382L65.676 121.667ZM81.6383 104.176L78.8275 103.128L78.8145 103.162L78.8024 103.197L81.6383 104.176ZM63.2817 64.54L64.34 61.7329L64.3305 61.7293L64.321 61.7258L63.2817 64.54ZM52.587 123C49.1056 123 45.7685 122.419 42.4036 121.242L40.4232 126.906C44.4009 128.297 48.4065 129 52.587 129V123ZM42.4305 121.252C27.095 115.725 19.2481 98.6854 24.7621 83.3683L19.1168 81.336C12.4995 99.7176 21.8918 120.228 40.3963 126.897L42.4305 121.252ZM24.7525 83.3946C27.5128 75.946 32.869 70.1273 39.9801 66.7717L37.4196 61.3455C28.8877 65.3715 22.4317 72.3904 19.1264 81.3097L24.7525 83.3946ZM39.9801 66.7717C47.057 63.4323 55.1733 63.1283 62.5978 65.7626L64.6041 60.108C55.7471 56.9654 45.9857 57.3033 37.4196 61.3455L39.9801 66.7717ZM62.5978 65.7626C69.9524 68.3721 75.8947 73.8907 79.2392 81.0539L84.6758 78.5155C80.6777 69.9525 73.531 63.2754 64.6041 60.108L62.5978 65.7626ZM79.2392 81.0539C82.5661 88.1791 82.8678 96.191 80.2443 103.664L85.9055 105.651C89.0284 96.756 88.6916 87.1163 84.6758 78.5155L79.2392 81.0539ZM80.2618 103.615C77.5015 111.064 72.1454 116.882 65.0343 120.238L67.5948 125.664C76.1267 121.638 82.5826 114.619 85.8879 105.7L80.2618 103.615ZM65.0075 120.251C61.1484 122.119 56.814 123 52.587 123V129C57.6181 129 62.861 127.956 67.6216 125.651L65.0075 120.251ZM20.7203 81.9579C14.232 99.5869 23.3662 118.946 41.0151 125.445L43.0887 119.815C28.4938 114.44 21.0273 98.4952 26.351 84.0303L20.7203 81.9579ZM41.0126 125.444C49.6153 128.621 58.7301 128.076 66.9053 124.404L64.4468 118.931C57.6174 121.998 50.1315 122.416 43.0912 119.816L41.0126 125.444ZM66.9534 124.382C75.1391 120.53 81.4794 113.833 84.4742 105.155L78.8024 103.197C76.37 110.246 71.2174 115.744 64.3987 118.953L66.9534 124.382ZM84.4491 105.225C87.6147 96.7381 87.0739 87.4103 83.4121 79.3466L77.949 81.8274C80.9913 88.5269 81.4083 96.209 78.8275 103.128L84.4491 105.225ZM83.4121 79.3466C79.7138 71.2026 72.7037 64.8859 64.34 61.7329L62.2234 67.3472C69.1834 69.971 74.9431 75.2082 77.949 81.8274L83.4121 79.3466ZM64.321 61.7258C55.7583 58.5636 46.4631 58.9097 38.2206 62.7884L40.7753 68.2173C47.5372 65.0353 55.162 64.7395 62.2424 67.3543L64.321 61.7258ZM38.2206 62.7884C30.0348 66.6403 23.6946 73.3376 20.6998 82.0154L26.3715 83.9727C28.8039 76.9245 33.9565 71.426 40.7753 68.2173L38.2206 62.7884Z" fill="url(#paint9_linear_1_496)" mask="url(#path-9-inside-5_1_496)"/>
<mask id="path-11-inside-6_1_496" fill="white">
<path d="M75.5 67C71.6776 67 68.0145 66.3583 64.3513 65.0748C56.2287 62.1871 49.6988 56.0907 46.0357 48.2297C42.3726 40.3686 42.054 31.5449 44.9208 23.363C51.1322 6.51778 69.7664 -2.14546 86.6487 3.95089C94.7713 6.83864 101.301 12.935 104.964 20.7961C108.627 28.6572 108.946 37.4808 106.079 45.6628C103.053 53.8447 97.1603 60.2619 89.3562 63.9518C84.8967 66.0374 80.278 67 75.5 67ZM75.5 3.63003C62.9179 3.63003 50.9729 11.4911 46.3542 24.0047C43.4874 31.7053 43.9652 40.2081 47.3098 47.5879C50.8137 55.1282 57.0251 60.7432 64.6699 63.631C72.4739 66.5187 80.7558 66.0374 88.2413 62.6684C95.7269 59.1389 101.46 53.0426 104.168 45.1815C106.876 37.3204 106.557 28.978 103.212 21.5982C99.7085 14.058 93.4971 8.44294 85.8523 5.5552C82.667 4.27175 79.0039 3.63003 75.5 3.63003Z"/>
</mask>
<path d="M75.5 67C71.6776 67 68.0145 66.3583 64.3513 65.0748C56.2287 62.1871 49.6988 56.0907 46.0357 48.2297C42.3726 40.3686 42.054 31.5449 44.9208 23.363C51.1322 6.51778 69.7664 -2.14546 86.6487 3.95089C94.7713 6.83864 101.301 12.935 104.964 20.7961C108.627 28.6572 108.946 37.4808 106.079 45.6628C103.053 53.8447 97.1603 60.2619 89.3562 63.9518C84.8967 66.0374 80.278 67 75.5 67ZM75.5 3.63003C62.9179 3.63003 50.9729 11.4911 46.3542 24.0047C43.4874 31.7053 43.9652 40.2081 47.3098 47.5879C50.8137 55.1282 57.0251 60.7432 64.6699 63.631C72.4739 66.5187 80.7558 66.0374 88.2413 62.6684C95.7269 59.1389 101.46 53.0426 104.168 45.1815C106.876 37.3204 106.557 28.978 103.212 21.5982C99.7085 14.058 93.4971 8.44294 85.8523 5.5552C82.667 4.27175 79.0039 3.63003 75.5 3.63003Z" fill="url(#paint10_linear_1_496)"/>
<path d="M64.3513 65.0748L63.3464 67.9015L63.3594 67.9061L64.3513 65.0748ZM44.9208 23.363L42.1061 22.3251L42.0976 22.3479L42.0896 22.3709L44.9208 23.363ZM86.6487 3.95089L85.6297 6.77256L85.6367 6.77508L85.6437 6.77757L86.6487 3.95089ZM106.079 45.6628L108.893 46.7034L108.902 46.6792L108.91 46.6548L106.079 45.6628ZM89.3562 63.9518L90.6271 66.6693L90.6385 66.6639L89.3562 63.9518ZM46.3542 24.0047L49.1657 25.0513L49.1686 25.0435L46.3542 24.0047ZM47.3098 47.5879L44.5773 48.8263L44.5832 48.8393L44.5892 48.8522L47.3098 47.5879ZM64.6699 63.631L63.6098 66.4374L63.6193 66.441L63.6288 66.4445L64.6699 63.631ZM88.2413 62.6684L89.4726 65.4041L89.4968 65.3932L89.5208 65.3819L88.2413 62.6684ZM103.212 21.5982L105.945 20.3598L105.939 20.3469L105.933 20.334L103.212 21.5982ZM85.8523 5.5552L84.7311 8.33781L84.7616 8.35007L84.7922 8.36165L85.8523 5.5552ZM75.5 64C72.0278 64 68.6996 63.4195 65.3433 62.2436L63.3594 67.9061C67.3293 69.297 71.3274 70 75.5 70V64ZM65.3563 62.2482C58.021 59.6403 52.0923 54.1245 48.7549 46.9625L43.3164 49.4968C47.3053 58.0569 54.4365 64.7339 63.3464 67.9015L65.3563 62.2482ZM48.7549 46.9625C45.4351 39.8382 45.134 31.8269 47.7521 24.355L42.0896 22.3709C38.974 31.2629 39.31 40.8989 43.3164 49.4968L48.7549 46.9625ZM47.7356 24.4009C53.3762 9.10358 70.2977 1.236 85.6297 6.77256L87.6676 1.12923C69.2351 -5.52691 48.8882 3.93198 42.1061 22.3251L47.7356 24.4009ZM85.6437 6.77757C92.979 9.38541 98.9077 14.9012 102.245 22.0632L107.684 19.5289C103.695 10.9688 96.5635 4.29187 87.6536 1.12422L85.6437 6.77757ZM102.245 22.0632C105.565 29.1875 105.866 37.1988 103.248 44.6708L108.91 46.6548C112.026 37.7628 111.69 28.1268 107.684 19.5289L102.245 22.0632ZM103.265 44.6221C100.511 52.0698 95.1668 57.886 88.0739 61.2397L90.6385 66.6639C99.1537 62.6378 105.595 55.6196 108.893 46.7034L103.265 44.6221ZM88.0853 61.2343C84.0418 63.1254 79.8593 64 75.5 64V70C80.6967 70 85.7516 68.9495 90.6271 66.6693L88.0853 61.2343ZM75.5 0.630034C61.6938 0.630034 48.6045 9.24398 43.5398 22.9659L49.1686 25.0435C53.3414 13.7383 64.1421 6.63003 75.5 6.63003V0.630034ZM43.5427 22.958C40.3846 31.4413 40.924 40.7653 44.5773 48.8263L50.0423 46.3495C47.0064 39.651 46.5903 31.9694 49.1657 25.0513L43.5427 22.958ZM44.5892 48.8522C48.4333 57.1247 55.2529 63.2807 63.6098 66.4374L65.73 60.8245C58.7972 58.2057 53.194 53.1316 50.0304 46.3237L44.5892 48.8522ZM63.6288 66.4445C72.2153 69.6218 81.3133 69.0764 89.4726 65.4041L87.0101 59.9327C80.1983 62.9985 72.7325 63.4156 65.711 60.8174L63.6288 66.4445ZM89.5208 65.3819C97.6906 61.5297 104.017 54.8331 107.004 46.1584L101.332 44.2045C98.9042 51.252 93.7631 56.7481 86.9619 59.9549L89.5208 65.3819ZM107.004 46.1584C109.952 37.6016 109.618 28.465 105.945 20.3598L100.48 22.8366C103.496 29.4911 103.799 37.0392 101.332 44.2045L107.004 46.1584ZM105.933 20.334C102.089 12.0615 95.2693 5.90545 86.9124 2.74875L84.7922 8.36165C91.725 10.9804 97.3282 16.0545 100.492 22.8625L105.933 20.334ZM86.9735 2.77258C83.3937 1.33018 79.3447 0.630034 75.5 0.630034V6.63003C78.6631 6.63003 81.9403 7.21333 84.7311 8.33781L86.9735 2.77258Z" fill="url(#paint11_linear_1_496)" mask="url(#path-11-inside-6_1_496)"/>
<mask id="path-13-inside-7_1_496" fill="white">
<path d="M84.5 73C77.1542 73 69.6487 70.429 63.5804 65.4478C49.847 53.8785 48.0904 33.3107 59.5881 19.6525C71.0859 5.83356 91.6861 4.06603 105.42 15.6354C119.153 27.2047 120.91 47.7724 109.412 61.4307C103.024 68.9829 93.7621 73 84.5 73ZM84.5 9.52933C75.717 9.52933 66.9339 13.2251 60.706 20.6166C49.6873 33.6321 51.4439 53.2357 64.5386 64.1623C77.6333 75.0889 97.2753 73.4821 108.134 60.3059C119.153 47.2904 117.396 27.6868 104.302 16.7602C98.5528 11.9396 91.5264 9.52933 84.5 9.52933Z"/>
</mask>
<path d="M84.5 73C77.1542 73 69.6487 70.429 63.5804 65.4478C49.847 53.8785 48.0904 33.3107 59.5881 19.6525C71.0859 5.83356 91.6861 4.06603 105.42 15.6354C119.153 27.2047 120.91 47.7724 109.412 61.4307C103.024 68.9829 93.7621 73 84.5 73ZM84.5 9.52933C75.717 9.52933 66.9339 13.2251 60.706 20.6166C49.6873 33.6321 51.4439 53.2357 64.5386 64.1623C77.6333 75.0889 97.2753 73.4821 108.134 60.3059C119.153 47.2904 117.396 27.6868 104.302 16.7602C98.5528 11.9396 91.5264 9.52933 84.5 9.52933Z" fill="url(#paint12_linear_1_496)"/>
<path d="M63.5804 65.4478L61.6476 67.7422L61.6622 67.7545L61.677 67.7666L63.5804 65.4478ZM59.5881 19.6525L61.8832 21.5845L61.8888 21.5779L61.8943 21.5713L59.5881 19.6525ZM109.412 61.4307L111.702 63.368L111.707 63.3627L109.412 61.4307ZM60.706 20.6166L62.9957 22.555L63.0002 22.5497L60.706 20.6166ZM108.134 60.3059L105.845 58.3675L105.832 58.3826L105.819 58.3979L108.134 60.3059ZM104.302 16.7602L102.374 19.059L102.38 19.0636L104.302 16.7602ZM84.5 70C77.8418 70 71.0105 67.6656 65.4839 63.129L61.677 67.7666C68.2869 73.1924 76.4666 76 84.5 76V70ZM65.5133 63.1534C53.0427 52.648 51.4555 33.9716 61.8832 21.5845L57.2931 17.7205C44.7252 32.6499 46.6513 55.109 61.6476 67.7422L65.5133 63.1534ZM61.8943 21.5713C72.3223 9.03811 91.0193 7.42694 103.487 17.9297L107.352 13.341C92.3529 0.705113 69.8496 2.62902 57.282 17.7337L61.8943 21.5713ZM103.487 17.9297C115.957 28.4352 117.544 47.1116 107.117 59.4986L111.707 63.3627C124.275 48.4333 122.349 25.9742 107.352 13.341L103.487 17.9297ZM107.121 59.4933C101.322 66.35 92.9081 70 84.5 70V76C94.6161 76 104.726 71.6158 111.702 63.368L107.121 59.4933ZM84.5 6.52933C74.8738 6.52933 65.236 10.5844 58.4118 18.6836L63.0002 22.5497C68.6319 15.8657 76.5601 12.5293 84.5 12.5293V6.52933ZM58.4163 18.6782C46.315 32.9725 48.2512 54.4789 62.6165 66.4657L66.4606 61.8589C54.6365 51.9925 53.0596 34.2917 62.9957 22.555L58.4163 18.6782ZM62.6165 66.4657C76.9588 78.4333 98.5074 76.7042 110.449 62.2138L105.819 58.3979C96.0433 70.26 78.3078 71.7445 66.4606 61.8589L62.6165 66.4657ZM110.424 62.2443C122.525 47.9499 120.589 26.4436 106.224 14.4567L102.38 19.0636C114.204 28.93 115.781 46.6308 105.845 58.3675L110.424 62.2443ZM106.229 14.4614C99.9276 9.17725 92.2147 6.52933 84.5 6.52933V12.5293C90.8382 12.5293 97.1781 14.702 102.374 19.059L106.229 14.4614Z" fill="url(#paint13_linear_1_496)" mask="url(#path-13-inside-7_1_496)"/>
<mask id="path-15-inside-8_1_496" fill="white">
<path d="M43.5 121C35.8476 121 28.5141 118.271 22.6154 113.454C15.9196 107.835 11.9339 99.9679 11.1368 91.4588C10.3397 82.7891 13.0499 74.4405 18.6298 67.6974C24.2096 60.9543 32.0214 56.78 40.6304 56.1378C49.2393 55.335 57.6888 58.0644 64.3846 63.6836C71.0804 69.3029 75.0661 77.1698 75.8632 85.679C76.6603 94.1881 73.9501 102.697 68.3702 109.28C62.7904 115.862 54.9786 120.037 46.3696 120.839C45.4131 121 44.4565 121 43.5 121ZM43.5 57.5827C34.7317 57.5827 25.9633 61.2754 19.7457 68.6607C14.4847 74.9221 11.9339 82.9496 12.5716 91.2982C13.2093 99.6468 17.195 107.032 23.5719 112.33C29.9489 117.628 37.9201 120.197 46.2102 119.395C54.5003 118.752 61.8338 114.739 67.2542 108.477C72.5153 102.216 75.0661 94.1881 74.4284 85.8395C73.6312 77.6515 69.805 70.1056 63.4281 64.8075C57.6888 59.991 50.5147 57.5827 43.5 57.5827Z"/>
</mask>
<path d="M43.5 121C35.8476 121 28.5141 118.271 22.6154 113.454C15.9196 107.835 11.9339 99.9679 11.1368 91.4588C10.3397 82.7891 13.0499 74.4405 18.6298 67.6974C24.2096 60.9543 32.0214 56.78 40.6304 56.1378C49.2393 55.335 57.6888 58.0644 64.3846 63.6836C71.0804 69.3029 75.0661 77.1698 75.8632 85.679C76.6603 94.1881 73.9501 102.697 68.3702 109.28C62.7904 115.862 54.9786 120.037 46.3696 120.839C45.4131 121 44.4565 121 43.5 121ZM43.5 57.5827C34.7317 57.5827 25.9633 61.2754 19.7457 68.6607C14.4847 74.9221 11.9339 82.9496 12.5716 91.2982C13.2093 99.6468 17.195 107.032 23.5719 112.33C29.9489 117.628 37.9201 120.197 46.2102 119.395C54.5003 118.752 61.8338 114.739 67.2542 108.477C72.5153 102.216 75.0661 94.1881 74.4284 85.8395C73.6312 77.6515 69.805 70.1056 63.4281 64.8075C57.6888 59.991 50.5147 57.5827 43.5 57.5827Z" fill="url(#paint14_linear_1_496)"/>
<path d="M22.6154 113.454L20.6869 115.752L20.7023 115.765L20.718 115.778L22.6154 113.454ZM11.1368 91.4588L8.14942 91.7335L8.1499 91.7386L11.1368 91.4588ZM40.6304 56.1378L40.8535 59.1295L40.8812 59.1274L40.9089 59.1248L40.6304 56.1378ZM46.3696 120.839L46.0911 117.852L45.9816 117.863L45.8731 117.881L46.3696 120.839ZM19.7457 68.6607L17.4508 66.7286L17.4489 66.7308L19.7457 68.6607ZM46.2102 119.395L45.9785 116.403L45.9498 116.406L45.9211 116.408L46.2102 119.395ZM67.2542 108.477L69.5224 110.441L69.5369 110.424L69.5511 110.407L67.2542 108.477ZM74.4284 85.8395L77.4196 85.6111L77.4173 85.5799L77.4142 85.5489L74.4284 85.8395ZM63.4281 64.8075L61.4995 67.1055L61.5052 67.1103L61.5109 67.115L63.4281 64.8075ZM43.5 118C36.5679 118 29.8986 115.528 24.5128 111.13L20.718 115.778C27.1296 121.013 35.1273 124 43.5 124V118ZM24.5439 111.156C18.4696 106.059 14.8494 98.9248 14.1237 91.179L8.1499 91.7386C9.01853 101.011 13.3695 109.611 20.6869 115.752L24.5439 111.156ZM14.1242 91.1841C13.4028 83.3378 15.8449 75.7685 20.9411 69.61L16.3185 65.7848C10.2549 73.1125 7.2766 82.2404 8.14942 91.7335L14.1242 91.1841ZM20.9411 69.61C26.0248 63.4664 33.0955 59.7082 40.8535 59.1295L40.4072 53.1461C30.9474 53.8518 22.3945 58.4421 16.3185 65.7848L20.9411 69.61ZM40.9089 59.1248C48.6929 58.399 56.3534 60.8602 62.4561 65.9816L66.3131 61.3856C59.0241 55.2686 49.7857 52.2711 40.3518 53.1507L40.9089 59.1248ZM62.4561 65.9816C68.5304 71.0793 72.1506 78.213 72.8763 85.9588L78.8501 85.3992C77.9815 76.1267 73.6305 67.5265 66.3131 61.3856L62.4561 65.9816ZM72.8763 85.9588C73.597 93.6522 71.1475 101.364 66.0818 107.34L70.6587 111.22C76.7526 104.031 79.7236 94.7241 78.8501 85.3992L72.8763 85.9588ZM66.0818 107.34C60.9943 113.342 53.8963 117.125 46.0911 117.852L46.6482 123.826C56.0608 122.949 64.5864 118.383 70.6587 111.22L66.0818 107.34ZM45.8731 117.881C45.2034 117.993 44.4964 118 43.5 118V124C44.4167 124 45.6228 124.007 46.8662 123.798L45.8731 117.881ZM43.5 54.5827C33.8876 54.5827 24.2642 58.6354 17.4508 66.7286L22.0407 70.5928C27.6624 63.9153 35.5757 60.5827 43.5 60.5827V54.5827ZM17.4489 66.7308C11.6714 73.6069 8.88426 82.4136 9.58036 91.5267L15.5629 91.0698C14.9836 83.4857 17.2981 76.2374 22.0426 70.5906L17.4489 66.7308ZM9.58036 91.5267C10.2827 100.721 14.6814 108.844 21.6548 114.638L25.4891 110.023C19.7085 105.22 16.136 98.5725 15.5629 91.0698L9.58036 91.5267ZM21.6548 114.638C28.6253 120.429 37.3848 123.263 46.4994 122.381L45.9211 116.408C38.4554 117.131 31.2725 114.828 25.4891 110.023L21.6548 114.638ZM46.4419 122.386C55.5917 121.677 63.6342 117.242 69.5224 110.441L64.9861 106.514C60.0334 112.235 53.4089 115.828 45.9785 116.403L46.4419 122.386ZM69.5511 110.407C75.3286 103.531 78.1157 94.7242 77.4196 85.6111L71.4371 86.068C72.0164 93.6521 69.7019 100.9 64.9574 106.547L69.5511 110.407ZM77.4142 85.5489C76.5442 76.6119 72.3589 68.3272 65.3452 62.5L61.5109 67.115C67.2512 71.8841 70.7183 78.6911 71.4425 86.1302L77.4142 85.5489ZM65.3566 62.5095C59.0525 57.219 51.1874 54.5827 43.5 54.5827V60.5827C49.842 60.5827 56.3251 62.763 61.4995 67.1055L65.3566 62.5095Z" fill="url(#paint15_linear_1_496)" mask="url(#path-15-inside-8_1_496)"/>
<mask id="path-17-inside-9_1_496" fill="white">
<path d="M36.5 113C33.6329 113 30.7658 112.679 28.0579 111.877C19.6158 109.63 12.6073 104.174 8.30665 96.7916C4.00597 89.2491 2.89098 80.5832 5.12096 72.0779C7.35094 63.733 12.7666 56.6719 20.253 52.3389C27.7394 48.006 36.5 46.8827 44.9421 49.1294C53.3842 51.3761 60.3927 56.6719 64.6934 64.2144C68.994 71.7569 70.109 80.4228 67.879 88.9282C65.6491 97.2731 60.2334 104.334 52.747 108.667C47.6499 111.556 42.075 113 36.5 113ZM36.3407 49.6108C30.925 49.6108 25.6687 51.0551 20.8901 53.7833C13.7223 57.9557 8.62522 64.5354 6.55452 72.5593C4.48382 80.5833 5.59881 88.9282 9.74021 95.9892C13.8816 103.05 20.5716 108.186 28.5358 110.432C36.5 112.519 44.7828 111.395 51.9506 107.383C66.764 98.8778 71.8611 79.9413 63.2598 65.1773C59.1184 57.9557 52.4284 52.9809 44.4642 50.7342C41.7564 49.9318 39.0486 49.6108 36.3407 49.6108Z"/>
</mask>
<path d="M36.5 113C33.6329 113 30.7658 112.679 28.0579 111.877C19.6158 109.63 12.6073 104.174 8.30665 96.7916C4.00597 89.2491 2.89098 80.5832 5.12096 72.0779C7.35094 63.733 12.7666 56.6719 20.253 52.3389C27.7394 48.006 36.5 46.8827 44.9421 49.1294C53.3842 51.3761 60.3927 56.6719 64.6934 64.2144C68.994 71.7569 70.109 80.4228 67.879 88.9282C65.6491 97.2731 60.2334 104.334 52.747 108.667C47.6499 111.556 42.075 113 36.5 113ZM36.3407 49.6108C30.925 49.6108 25.6687 51.0551 20.8901 53.7833C13.7223 57.9557 8.62522 64.5354 6.55452 72.5593C4.48382 80.5833 5.59881 88.9282 9.74021 95.9892C13.8816 103.05 20.5716 108.186 28.5358 110.432C36.5 112.519 44.7828 111.395 51.9506 107.383C66.764 98.8778 71.8611 79.9413 63.2598 65.1773C59.1184 57.9557 52.4284 52.9809 44.4642 50.7342C41.7564 49.9318 39.0486 49.6108 36.3407 49.6108Z" fill="url(#paint16_linear_1_496)"/>
<path d="M28.0579 111.877L28.9103 109L28.87 108.988L28.8295 108.978L28.0579 111.877ZM8.30665 96.7916L5.70053 98.2776L5.70745 98.2897L5.71447 98.3018L8.30665 96.7916ZM5.12096 72.0779L2.22263 71.3034L2.21904 71.317L5.12096 72.0779ZM67.879 88.9282L70.7774 89.7027L70.781 89.689L67.879 88.9282ZM52.747 108.667L54.2262 111.277L54.238 111.27L54.2498 111.264L52.747 108.667ZM20.8901 53.7833L19.4027 51.178L19.3918 51.1842L19.3809 51.1905L20.8901 53.7833ZM28.5358 110.432L27.7213 113.32L27.7484 113.327L27.7756 113.334L28.5358 110.432ZM51.9506 107.383L53.4158 110.001L53.4302 109.993L53.4444 109.985L51.9506 107.383ZM63.2598 65.1773L60.6574 66.6697L60.6625 66.6786L60.6676 66.6874L63.2598 65.1773ZM44.4642 50.7342L43.6119 53.6105L43.6308 53.6161L43.6497 53.6215L44.4642 50.7342ZM36.5 110C33.8486 110 31.2793 109.702 28.9103 109L27.2056 114.753C30.2522 115.656 33.4171 116 36.5 116V110ZM28.8295 108.978C21.1665 106.938 14.8067 101.989 10.8988 95.2815L5.71447 98.3018C10.408 106.358 18.0652 112.322 27.2864 114.776L28.8295 108.978ZM10.9128 95.3056C7.00655 88.4549 5.98881 80.5969 8.02288 72.8387L2.21904 71.317C-0.206847 80.5696 1.00539 90.0433 5.70053 98.2776L10.9128 95.3056ZM8.01926 72.8524C10.0434 65.2777 14.9559 58.871 21.7558 54.9354L18.7502 49.7425C10.5774 54.4727 4.65849 62.1882 2.22266 71.3034L8.01926 72.8524ZM21.7558 54.9354C28.5411 51.0082 36.4822 49.9823 44.1705 52.0285L45.7136 46.2303C36.5178 43.783 26.9376 45.0038 18.7502 49.7425L21.7558 54.9354ZM44.1705 52.0285C51.8596 54.0748 58.1959 58.8758 62.0872 65.7004L67.2995 62.7284C62.5894 54.4679 54.9087 48.6774 45.7136 46.2303L44.1705 52.0285ZM62.0872 65.7004C65.9935 72.5511 67.0112 80.4091 64.9771 88.1673L70.781 89.689C73.2068 80.4364 71.9946 70.9627 67.2995 62.7284L62.0872 65.7004ZM64.9807 88.1537C62.9566 95.7283 58.0441 102.135 51.2442 106.071L54.2498 111.264C62.4226 106.533 68.3415 98.8179 70.7773 89.7027L64.9807 88.1537ZM51.2679 106.057C46.6182 108.692 41.5523 110 36.5 110V116C42.5976 116 48.6816 114.419 54.2262 111.277L51.2679 106.057ZM36.3407 46.6108C30.3808 46.6108 24.6143 48.2026 19.4027 51.178L22.3775 56.3886C26.723 53.9077 31.4692 52.6108 36.3407 52.6108V46.6108ZM19.3809 51.1905C11.5423 55.7535 5.92694 62.9853 3.64969 71.8097L9.45935 73.3089C11.3235 66.0854 15.9023 60.158 22.3994 56.376L19.3809 51.1905ZM3.64969 71.8097C1.3856 80.583 2.60019 89.7454 7.15246 97.507L12.328 94.4715C8.59744 88.111 7.58205 80.5835 9.45935 73.3089L3.64969 71.8097ZM7.15246 97.507C11.6915 105.246 19.0221 110.866 27.7213 113.32L29.3503 107.545C22.121 105.506 16.0717 100.855 12.328 94.4715L7.15246 97.507ZM27.7756 113.334C36.5064 115.621 45.5854 114.384 53.4158 110.001L50.4853 104.765C43.9802 108.406 36.4936 109.416 29.296 107.53L27.7756 113.334ZM53.4444 109.985C69.6956 100.654 75.2943 79.8747 65.852 63.6671L60.6676 66.6874C68.428 80.008 63.8325 97.1017 50.4568 104.782L53.4444 109.985ZM65.8622 63.6848C61.306 55.74 53.9502 50.2931 45.2787 47.8468L43.6497 53.6215C50.9067 55.6687 56.9307 60.1714 60.6574 66.6697L65.8622 63.6848ZM45.3166 47.8578C42.2893 46.9607 39.2889 46.6108 36.3407 46.6108V52.6108C38.8082 52.6108 41.2234 52.9028 43.6119 53.6105L45.3166 47.8578Z" fill="url(#paint17_linear_1_496)" mask="url(#path-17-inside-9_1_496)"/>
<mask id="path-19-inside-10_1_496" fill="white">
<path d="M91.5 81C88.6329 81 85.7658 80.679 83.0579 79.8766C74.6158 77.6299 67.6073 72.1737 63.3067 64.7916C59.006 57.2491 57.891 48.5832 60.121 40.0779C62.3509 31.733 67.7666 24.6719 75.253 20.3389C82.7394 16.006 91.5 14.8827 99.9421 17.1294C108.384 19.3761 115.393 24.6719 119.693 32.2144C123.994 39.7569 125.109 48.4228 122.879 56.9282C120.649 65.2731 115.233 72.3341 107.747 76.6671C102.65 79.5557 97.075 81 91.5 81ZM75.8901 21.6228C68.7223 25.7952 63.6252 32.3749 61.5545 40.3988C59.4838 48.4228 60.4395 56.7677 64.5809 63.8288C68.7223 71.0503 75.4123 76.0252 83.3765 78.2719C91.3407 80.3581 99.6235 79.2347 106.791 75.2228C113.959 71.0503 119.056 64.4707 121.127 56.4467C123.198 48.4228 122.242 40.0779 118.101 33.0168C113.959 25.7952 107.269 20.8204 99.3049 18.5737C91.5 16.4875 83.0579 17.6108 75.8901 21.6228Z"/>
</mask>
<path d="M91.5 81C88.6329 81 85.7658 80.679 83.0579 79.8766C74.6158 77.6299 67.6073 72.1737 63.3067 64.7916C59.006 57.2491 57.891 48.5832 60.121 40.0779C62.3509 31.733 67.7666 24.6719 75.253 20.3389C82.7394 16.006 91.5 14.8827 99.9421 17.1294C108.384 19.3761 115.393 24.6719 119.693 32.2144C123.994 39.7569 125.109 48.4228 122.879 56.9282C120.649 65.2731 115.233 72.3341 107.747 76.6671C102.65 79.5557 97.075 81 91.5 81ZM75.8901 21.6228C68.7223 25.7952 63.6252 32.3749 61.5545 40.3988C59.4838 48.4228 60.4395 56.7677 64.5809 63.8288C68.7223 71.0503 75.4123 76.0252 83.3765 78.2719C91.3407 80.3581 99.6235 79.2347 106.791 75.2228C113.959 71.0503 119.056 64.4707 121.127 56.4467C123.198 48.4228 122.242 40.0779 118.101 33.0168C113.959 25.7952 107.269 20.8204 99.3049 18.5737C91.5 16.4875 83.0579 17.6108 75.8901 21.6228Z" fill="url(#paint18_linear_1_496)"/>
<path d="M83.0579 79.8766L83.9103 77.0003L83.87 76.9883L83.8295 76.9776L83.0579 79.8766ZM63.3067 64.7916L60.7005 66.2776L60.7074 66.2897L60.7145 66.3018L63.3067 64.7916ZM60.121 40.0779L57.2226 39.3034L57.219 39.317L60.121 40.0779ZM122.879 56.9282L125.777 57.7027L125.781 57.689L122.879 56.9282ZM107.747 76.6671L109.226 79.2771L109.238 79.2704L109.25 79.2635L107.747 76.6671ZM75.8901 21.6228L74.4249 19.005L74.4028 19.0173L74.3809 19.0301L75.8901 21.6228ZM64.5809 63.8288L67.1834 62.3363L67.1761 62.3236L67.1687 62.311L64.5809 63.8288ZM83.3765 78.2719L82.562 81.1592L82.5891 81.1668L82.6163 81.1739L83.3765 78.2719ZM106.791 75.2228L108.257 77.8406L108.279 77.8282L108.301 77.8155L106.791 75.2228ZM118.101 33.0168L115.498 34.5092L115.505 34.5219L115.513 34.5345L118.101 33.0168ZM99.3049 18.5737L100.119 15.6864L100.1 15.6808L100.08 15.6754L99.3049 18.5737ZM91.5 78C88.8487 78 86.2793 77.7023 83.9103 77.0003L82.2056 82.753C85.2522 83.6558 88.4171 84 91.5 84V78ZM83.8295 76.9776C76.1665 74.9382 69.8067 69.9892 65.8988 63.2815L60.7145 66.3018C65.408 74.3581 73.0652 80.3217 82.2864 82.7757L83.8295 76.9776ZM65.9128 63.3056C62.0065 56.4549 60.9888 48.5969 63.0229 40.8387L57.219 39.317C54.7932 48.5696 56.0054 58.0433 60.7005 66.2776L65.9128 63.3056ZM63.0193 40.8524C65.0434 33.2777 69.9559 26.871 76.7558 22.9354L73.7502 17.7425C65.5774 22.4727 59.6585 30.1882 57.2227 39.3034L63.0193 40.8524ZM76.7558 22.9354C83.5411 19.0082 91.4822 17.9823 99.1705 20.0285L100.714 14.2303C91.5178 11.783 81.9376 13.0038 73.7502 17.7425L76.7558 22.9354ZM99.1705 20.0285C106.86 22.0748 113.196 26.8758 117.087 33.7004L122.299 30.7284C117.589 22.4679 109.909 16.6774 100.714 14.2303L99.1705 20.0285ZM117.087 33.7004C120.993 40.5511 122.011 48.4091 119.977 56.1673L125.781 57.689C128.207 48.4364 126.995 38.9627 122.299 30.7284L117.087 33.7004ZM119.981 56.1537C117.957 63.7283 113.044 70.135 106.244 74.0706L109.25 79.2635C117.423 74.5333 123.342 66.8179 125.777 57.7027L119.981 56.1537ZM106.268 74.0571C101.618 76.6921 96.5523 78 91.5 78V84C97.5976 84 103.682 82.4193 109.226 79.2771L106.268 74.0571ZM74.3809 19.0301C66.5423 23.593 60.9269 30.8248 58.6497 39.6492L64.4594 41.1485C66.3235 33.9249 70.9023 27.9975 77.3994 24.2155L74.3809 19.0301ZM58.6497 39.6492C56.3965 48.3803 57.4198 57.5489 61.9932 65.3465L67.1687 62.311C63.4593 55.9864 62.5712 48.4652 64.4594 41.1485L58.6497 39.6492ZM61.9785 65.3212C66.5347 73.266 73.8905 78.7129 82.562 81.1592L84.191 75.3845C76.934 73.3374 70.91 68.8346 67.1834 62.3363L61.9785 65.3212ZM82.6163 81.1739C91.3471 83.461 100.426 82.2234 108.257 77.8406L105.326 72.6049C98.8209 76.246 91.3343 77.2552 84.1367 75.3698L82.6163 81.1739ZM108.301 77.8155C116.139 73.2526 121.754 66.0207 124.032 57.1964L118.222 55.6971C116.358 62.9206 111.779 68.848 105.282 72.63L108.301 77.8155ZM124.032 57.1964C126.285 48.4652 125.262 39.2966 120.688 31.499L115.513 34.5345C119.222 40.8591 120.11 48.3803 118.222 55.6971L124.032 57.1964ZM120.703 31.5244C116.147 23.5795 108.791 18.1326 100.119 15.6864L98.4904 21.461C105.747 23.5082 111.771 28.0109 115.498 34.5092L120.703 31.5244ZM100.08 15.6754C91.4964 13.3812 82.2527 14.6235 74.4249 19.005L77.3554 24.2406C83.8631 20.5981 91.5036 19.5937 98.5302 21.4719L100.08 15.6754Z" fill="url(#paint19_linear_1_496)" mask="url(#path-19-inside-10_1_496)"/>
<mask id="path-21-inside-11_1_496" fill="white">
<path d="M95.5798 91C80.106 91 66.3869 79.9235 63.5155 64.1918C60.325 46.5336 72.2893 29.6782 89.8369 26.4676C98.4512 25.0228 107.065 26.9492 114.084 31.9256C121.263 36.9019 125.889 44.2862 127.484 52.9548C130.675 70.6129 118.711 87.4684 101.163 90.6789C99.2488 90.8395 97.494 91 95.5798 91ZM95.5798 27.5913C93.825 27.5913 91.9107 27.7518 90.156 28.0729C73.406 30.9624 62.0798 47.1758 65.1108 63.8707C67.9822 80.7262 84.0941 91.9632 101.004 88.9131C117.754 86.0236 129.08 69.8103 126.049 53.1153C124.613 44.9284 120.146 37.8651 113.287 33.2098C108.023 29.5176 101.961 27.5913 95.5798 27.5913Z"/>
</mask>
<path d="M95.5798 91C80.106 91 66.3869 79.9235 63.5155 64.1918C60.325 46.5336 72.2893 29.6782 89.8369 26.4676C98.4512 25.0228 107.065 26.9492 114.084 31.9256C121.263 36.9019 125.889 44.2862 127.484 52.9548C130.675 70.6129 118.711 87.4684 101.163 90.6789C99.2488 90.8395 97.494 91 95.5798 91ZM95.5798 27.5913C93.825 27.5913 91.9107 27.7518 90.156 28.0729C73.406 30.9624 62.0798 47.1758 65.1108 63.8707C67.9822 80.7262 84.0941 91.9632 101.004 88.9131C117.754 86.0236 129.08 69.8103 126.049 53.1153C124.613 44.9284 120.146 37.8651 113.287 33.2098C108.023 29.5176 101.961 27.5913 95.5798 27.5913Z" fill="url(#paint20_linear_1_496)"/>
<path d="M63.5155 64.1918L60.5633 64.7252L60.5643 64.7304L63.5155 64.1918ZM89.8369 26.4676L89.3407 23.5089L89.3188 23.5126L89.297 23.5166L89.8369 26.4676ZM114.084 31.9256L112.349 34.3729L112.362 34.382L112.375 34.3911L114.084 31.9256ZM127.484 52.9548L130.437 52.4214L130.435 52.4118L127.484 52.9548ZM101.163 90.6789L101.414 93.6684L101.559 93.6562L101.703 93.63L101.163 90.6789ZM90.156 28.0729L90.6659 31.0292L90.6809 31.0266L90.6959 31.0239L90.156 28.0729ZM65.1108 63.8707L68.0681 63.3669L68.0654 63.3508L68.0625 63.3348L65.1108 63.8707ZM101.004 88.9131L100.494 85.9568L100.482 85.9587L100.471 85.9608L101.004 88.9131ZM126.049 53.1153L123.094 53.6335L123.095 53.6423L123.097 53.6512L126.049 53.1153ZM113.287 33.2098L111.564 35.6659L111.583 35.6792L111.602 35.6921L113.287 33.2098ZM95.5798 88C81.5349 88 69.0744 77.9396 66.4668 63.6531L60.5643 64.7304C63.6995 81.9075 78.677 94 95.5798 94V88ZM66.4677 63.6584C63.5776 47.6623 74.4221 32.3377 90.3768 29.4186L89.297 23.5166C70.1565 27.0186 57.0725 45.4049 60.5633 64.7252L66.4677 63.6584ZM90.3331 29.4263C98.1835 28.1096 105.992 29.8657 112.349 34.3729L115.82 29.4782C108.139 24.0326 98.7189 21.936 89.3407 23.5089L90.3331 29.4263ZM112.375 34.3911C118.874 38.8963 123.076 45.5747 124.534 53.4977L130.435 52.4118C128.703 42.9978 123.652 34.9075 115.794 29.46L112.375 34.3911ZM124.532 53.4882C127.422 69.4842 116.578 84.8088 100.623 87.7279L101.703 93.63C120.843 90.1279 133.927 71.7416 130.437 52.4214L124.532 53.4882ZM100.912 87.6894C98.9601 87.8531 97.3423 88 95.5798 88V94C97.6457 94 99.5375 93.8258 101.414 93.6684L100.912 87.6894ZM95.5798 24.5913C93.657 24.5913 91.5613 24.7659 89.616 25.1219L90.6959 31.0239C92.2601 30.7377 93.993 30.5913 95.5798 30.5913V24.5913ZM89.646 25.1165C71.2535 28.2894 58.8302 46.0709 62.159 64.4066L68.0625 63.3348C65.3294 48.2806 75.5585 33.6354 90.6659 31.0292L89.646 25.1165ZM62.1534 64.3745C65.3075 82.8895 82.9998 95.2089 101.536 91.8655L100.471 85.9608C85.1883 88.7174 70.6569 78.5628 68.0681 63.3669L62.1534 64.3745ZM101.514 91.8695C119.906 88.6966 132.329 70.9151 129.001 52.5794L123.097 53.6512C125.83 68.7054 115.601 83.3506 100.494 85.9568L101.514 91.8695ZM129.004 52.5971C127.432 43.6346 122.523 35.8522 114.972 30.7275L111.602 35.6921C117.77 39.878 121.794 46.2221 123.094 53.6335L129.004 52.5971ZM115.01 30.7537C109.246 26.7113 102.584 24.5913 95.5798 24.5913V30.5913C101.338 30.5913 106.799 32.324 111.564 35.6659L115.01 30.7537Z" fill="url(#paint21_linear_1_496)" mask="url(#path-21-inside-11_1_496)"/>
<mask id="path-23-inside-12_1_496" fill="white">
<path d="M32.4746 102C17.0267 102 3.33052 90.8987 0.463892 75.1316C-0.969424 66.6045 0.941663 57.9166 5.87864 50.8375C10.8156 43.7584 18.3007 38.9317 26.9006 37.4837C44.5782 34.4268 61.4594 46.1717 64.4853 63.8694C67.6705 81.5672 55.7262 98.4605 38.2079 101.678C36.2968 101.839 34.3857 102 32.4746 102ZM32.4746 38.449C30.7228 38.449 28.971 38.6099 27.0599 38.9317C18.9377 40.3797 11.7712 44.8846 7.1527 51.6419C2.37498 58.3992 0.623149 66.6045 2.05647 74.8098C3.48978 83.0152 7.94899 90.0942 14.7971 94.76C21.6451 99.4258 29.7672 101.356 37.8894 99.9085C54.6114 97.0125 65.9187 80.7627 62.8928 64.0303C60.3447 49.0677 47.1263 38.449 32.4746 38.449Z"/>
</mask>
<path d="M32.4746 102C17.0267 102 3.33052 90.8987 0.463892 75.1316C-0.969424 66.6045 0.941663 57.9166 5.87864 50.8375C10.8156 43.7584 18.3007 38.9317 26.9006 37.4837C44.5782 34.4268 61.4594 46.1717 64.4853 63.8694C67.6705 81.5672 55.7262 98.4605 38.2079 101.678C36.2968 101.839 34.3857 102 32.4746 102ZM32.4746 38.449C30.7228 38.449 28.971 38.6099 27.0599 38.9317C18.9377 40.3797 11.7712 44.8846 7.1527 51.6419C2.37498 58.3992 0.623149 66.6045 2.05647 74.8098C3.48978 83.0152 7.94899 90.0942 14.7971 94.76C21.6451 99.4258 29.7672 101.356 37.8894 99.9085C54.6114 97.0125 65.9187 80.7627 62.8928 64.0303C60.3447 49.0677 47.1263 38.449 32.4746 38.449Z" fill="url(#paint22_linear_1_496)"/>
<path d="M0.463892 75.1316L-2.4946 75.6289L-2.49129 75.6486L-2.48772 75.6683L0.463892 75.1316ZM26.9006 37.4837L27.3987 40.4421L27.4118 40.4398L26.9006 37.4837ZM64.4853 63.8694L61.5283 64.375L61.5305 64.3879L61.5328 64.4008L64.4853 63.8694ZM38.2079 101.678L38.4595 104.668L38.6057 104.655L38.7499 104.629L38.2079 101.678ZM27.0599 38.9317L26.5618 35.9733L26.5475 35.9757L26.5333 35.9783L27.0599 38.9317ZM7.1527 51.6419L9.60226 53.3739L9.61602 53.3544L9.62947 53.3347L7.1527 51.6419ZM37.8894 99.9085L37.3774 96.9525L37.3701 96.9537L37.3628 96.955L37.8894 99.9085ZM62.8928 64.0303L59.9353 64.534L59.9379 64.5491L59.9407 64.5642L62.8928 64.0303ZM32.4746 99C18.4646 99 6.02067 88.9239 3.41551 74.595L-2.48772 75.6683C0.640383 92.8735 15.5887 105 32.4746 105V99ZM3.42239 74.6343C2.11735 66.8704 3.85816 58.9791 8.33934 52.5536L3.41795 49.1214C-1.97484 56.854 -4.0562 66.3387 -2.4946 75.6289L3.42239 74.6343ZM8.33934 52.5536C12.8239 46.1231 19.6078 41.7539 27.3987 40.4421L26.4025 34.5253C16.9936 36.1096 8.80729 41.3936 3.41795 49.1214L8.33934 52.5536ZM27.4118 40.4398C43.4788 37.6615 58.7861 48.3368 61.5283 64.375L67.4424 63.3638C64.1328 44.0066 45.6776 31.1922 26.3894 34.5276L27.4118 40.4398ZM61.5328 64.4008C64.4209 80.448 53.5829 95.804 37.6659 98.7276L38.7499 104.629C57.8695 101.117 70.9201 82.6863 67.4379 63.338L61.5328 64.4008ZM37.9562 98.6888C36.0238 98.8515 34.2385 99 32.4746 99V105C34.5329 105 36.5698 104.827 38.4595 104.668L37.9562 98.6888ZM32.4746 35.449C30.5321 35.449 28.6122 35.6281 26.5618 35.9733L27.558 41.8901C29.3297 41.5917 30.9135 41.449 32.4746 41.449V35.449ZM26.5333 35.9783C17.6504 37.5619 9.767 42.5003 4.67593 49.9491L9.62947 53.3347C13.7753 47.2689 20.2251 43.1975 27.5864 41.8851L26.5333 35.9783ZM4.70314 49.91C-0.551456 57.3417 -2.46478 66.3612 -0.898786 75.3261L5.01172 74.2936C3.71108 66.8479 5.30142 59.4567 9.60226 53.3739L4.70314 49.91ZM-0.898786 75.3261C0.669415 84.3036 5.56813 92.1022 13.1079 97.2393L16.4862 92.2808C10.3298 88.0863 6.31015 81.7268 5.01172 74.2936L-0.898786 75.3261ZM13.1079 97.2393C20.56 102.317 29.4706 104.457 38.4159 102.862L37.3628 96.955C30.0639 98.2563 22.7303 96.535 16.4862 92.2808L13.1079 97.2393ZM38.4013 102.864C56.7744 99.6825 69.1654 81.8579 65.8449 63.4965L59.9407 64.5642C62.672 79.6676 52.4484 94.3424 37.3774 96.9525L38.4013 102.864ZM65.8502 63.5267C63.0491 47.0784 48.5439 35.449 32.4746 35.449V41.449C45.7087 41.449 57.6402 51.0569 59.9353 64.534L65.8502 63.5267Z" fill="url(#paint23_linear_1_496)" mask="url(#path-23-inside-12_1_496)"/>
<mask id="path-25-inside-13_1_496" fill="white">
<path d="M32.5001 91C30.5881 91 28.6761 90.8395 26.7641 90.5184C9.23738 87.4684 -2.55331 70.4524 0.474032 52.9548C1.90804 44.4468 6.68805 36.9019 13.8581 31.9256C21.0281 26.9492 29.6321 25.0228 38.0768 26.4676C55.7628 29.6782 67.5535 46.5336 64.5262 64.1918C61.6581 79.9235 47.9555 91 32.5001 91ZM32.5001 27.5913C26.2861 27.5913 20.0721 29.5176 14.8141 33.2098C8.12205 38.0256 3.50137 45.0889 2.06737 53.1153C-0.95997 69.9708 10.3527 86.0236 27.0827 88.9131C43.8128 91.8026 59.9055 80.5657 62.9328 63.8707C65.9602 47.0152 54.6475 30.9624 37.9174 28.0729C36.0054 27.7518 34.2528 27.5913 32.5001 27.5913Z"/>
</mask>
<path d="M32.5001 91C30.5881 91 28.6761 90.8395 26.7641 90.5184C9.23738 87.4684 -2.55331 70.4524 0.474032 52.9548C1.90804 44.4468 6.68805 36.9019 13.8581 31.9256C21.0281 26.9492 29.6321 25.0228 38.0768 26.4676C55.7628 29.6782 67.5535 46.5336 64.5262 64.1918C61.6581 79.9235 47.9555 91 32.5001 91ZM32.5001 27.5913C26.2861 27.5913 20.0721 29.5176 14.8141 33.2098C8.12205 38.0256 3.50137 45.0889 2.06737 53.1153C-0.95997 69.9708 10.3527 86.0236 27.0827 88.9131C43.8128 91.8026 59.9055 80.5657 62.9328 63.8707C65.9602 47.0152 54.6475 30.9624 37.9174 28.0729C36.0054 27.7518 34.2528 27.5913 32.5001 27.5913Z" fill="url(#paint24_linear_1_496)"/>
<path d="M26.7641 90.5184L26.2497 93.474L26.2585 93.4755L26.2673 93.477L26.7641 90.5184ZM0.474032 52.9548L3.43014 53.4662L3.43231 53.4534L0.474032 52.9548ZM38.0768 26.4676L38.6126 23.5158L38.5977 23.5131L38.5827 23.5106L38.0768 26.4676ZM64.5262 64.1918L67.4775 64.7298L67.4803 64.7143L67.483 64.6987L64.5262 64.1918ZM14.8141 33.2098L13.0901 30.7546L13.0758 30.7646L13.0617 30.7748L14.8141 33.2098ZM2.06737 53.1153L5.02012 53.6456L5.02061 53.6429L2.06737 53.1153ZM62.9328 63.8707L65.8847 64.406L65.8856 64.401L62.9328 63.8707ZM37.9174 28.0729L38.428 25.1166L38.4142 25.1143L37.9174 28.0729ZM32.5001 88C30.7569 88 29.011 87.8537 27.2609 87.5598L26.2673 93.477C28.3411 93.8252 30.4193 94 32.5001 94V88ZM27.2784 87.5628C11.4074 84.8009 0.68079 69.3569 3.43011 53.4662L-2.48205 52.4433C-5.7874 71.5478 7.06738 90.1358 26.2497 93.474L27.2784 87.5628ZM3.43231 53.4534C4.73153 45.745 9.05965 38.9077 15.5686 34.3901L12.1475 29.461C4.31644 34.8962 -0.915459 43.1485 -2.48424 52.4562L3.43231 53.4534ZM15.5686 34.3901C22.1023 29.8554 29.9122 28.1144 37.5709 29.4246L38.5827 23.5106C29.3519 21.9313 19.9539 24.043 12.1475 29.461L15.5686 34.3901ZM37.5409 29.4194C53.6104 32.3365 64.3182 47.6509 61.5693 63.6848L67.483 64.6987C70.7888 45.4164 57.9152 27.0199 38.6126 23.5158L37.5409 29.4194ZM61.5748 63.6537C58.9699 77.9424 46.5238 88 32.5001 88V94C49.3872 94 64.3464 81.9047 67.4775 64.7298L61.5748 63.6537ZM32.5001 24.5913C25.6704 24.5913 18.8541 26.7071 13.0901 30.7546L16.5381 35.6649C21.29 32.3281 26.9018 30.5913 32.5001 30.5913V24.5913ZM13.0617 30.7748C5.77299 36.02 0.692963 43.7506 -0.885869 52.5877L5.02061 53.6429C6.30978 46.4271 10.4711 40.0312 16.5664 35.6448L13.0617 30.7748ZM-0.885384 52.585C-4.20712 71.0796 8.20239 88.6966 26.5722 91.8694L27.5933 85.9569C12.503 83.3506 2.28718 68.862 5.02012 53.6456L-0.885384 52.585ZM26.5722 91.8694C44.9224 95.0387 62.563 82.7244 65.8847 64.406L59.981 63.3354C57.248 78.4069 42.7031 88.5666 27.5933 85.9569L26.5722 91.8694ZM65.8856 64.401C69.2073 45.9064 56.7978 28.2894 38.428 25.1166L37.4069 31.0291C52.4971 33.6354 62.713 48.124 59.9801 63.3404L65.8856 64.401ZM38.4142 25.1143C36.3632 24.7699 34.4429 24.5913 32.5001 24.5913V30.5913C34.0626 30.5913 35.6476 30.7337 37.4206 31.0315L38.4142 25.1143Z" fill="url(#paint25_linear_1_496)" mask="url(#path-25-inside-13_1_496)"/>
<mask id="path-27-inside-14_1_496" fill="white">
<path d="M95.5001 102C93.5881 102 91.6761 101.84 89.7641 101.519C72.2374 98.3111 60.4467 81.4702 63.474 63.8275C66.6607 46.1847 83.5501 34.3159 101.077 37.5237C118.763 40.5711 130.553 57.5723 127.526 75.0547C126.092 83.5553 121.312 91.0936 114.142 96.0656C108.565 99.915 102.192 102 95.5001 102ZM95.5001 38.6464C80.8414 38.6464 67.776 49.2321 65.0674 64.1482C62.04 80.9891 73.3527 97.028 90.0827 99.915C106.813 102.802 122.905 91.5747 125.933 74.8943C128.96 58.0534 117.647 42.0146 100.917 39.1276C99.0054 38.8068 97.2528 38.6464 95.5001 38.6464Z"/>
</mask>
<path d="M95.5001 102C93.5881 102 91.6761 101.84 89.7641 101.519C72.2374 98.3111 60.4467 81.4702 63.474 63.8275C66.6607 46.1847 83.5501 34.3159 101.077 37.5237C118.763 40.5711 130.553 57.5723 127.526 75.0547C126.092 83.5553 121.312 91.0936 114.142 96.0656C108.565 99.915 102.192 102 95.5001 102ZM95.5001 38.6464C80.8414 38.6464 67.776 49.2321 65.0674 64.1482C62.04 80.9891 73.3527 97.028 90.0827 99.915C106.813 102.802 122.905 91.5747 125.933 74.8943C128.96 58.0534 117.647 42.0146 100.917 39.1276C99.0054 38.8068 97.2528 38.6464 95.5001 38.6464Z" fill="url(#paint26_linear_1_496)"/>
<path d="M89.7641 101.519L89.224 104.47L89.2458 104.474L89.2677 104.477L89.7641 101.519ZM63.474 63.8275L60.5218 63.2942L60.5195 63.3071L60.5172 63.3201L63.474 63.8275ZM101.077 37.5237L100.537 40.4747L100.552 40.4775L100.567 40.4801L101.077 37.5237ZM127.526 75.0547L124.57 74.5428L124.568 74.5556L127.526 75.0547ZM114.142 96.0656L115.846 98.5346L115.852 98.5309L114.142 96.0656ZM65.0674 64.1482L62.1156 63.6122L62.1147 63.6174L65.0674 64.1482ZM125.933 74.8943L128.885 75.43L128.885 75.4251L125.933 74.8943ZM100.917 39.1276L101.428 36.1712L101.414 36.1689L100.917 39.1276ZM95.5001 99C93.7567 99 92.0107 98.8538 90.2605 98.5602L89.2677 104.477C91.3415 104.825 93.4195 105 95.5001 105V99ZM90.3042 98.5679C74.3963 95.6564 63.6812 80.3592 66.4308 64.3348L60.5172 63.3201C57.2122 82.5813 70.0785 100.966 89.224 104.47L90.3042 98.5679ZM66.4263 64.3607C69.3235 48.3202 84.6732 37.5713 100.537 40.4747L101.617 34.5727C82.427 31.0605 63.9979 44.0492 60.5218 63.2942L66.4263 64.3607ZM100.567 40.4801C116.604 43.2433 127.317 58.6783 124.57 74.5428L130.482 75.5666C133.79 56.4662 120.922 37.8988 101.586 34.5672L100.567 40.4801ZM124.568 74.5556C123.269 82.2558 118.942 89.0867 112.433 93.6004L115.852 98.5309C123.683 93.1004 128.915 84.8547 130.484 75.5537L124.568 74.5556ZM112.438 93.5967C107.334 97.1198 101.55 99 95.5001 99V105C102.835 105 109.797 102.71 115.846 98.5346L112.438 93.5967ZM95.5001 35.6464C79.4071 35.6464 65.0862 47.2538 62.1156 63.6122L68.0191 64.6842C70.4659 51.2103 82.2757 41.6464 95.5001 41.6464V35.6464ZM62.1147 63.6174C58.7922 82.1 71.2047 99.7016 89.5726 102.871L90.5929 96.9586C75.5007 94.3543 65.2878 79.8781 68.02 64.679L62.1147 63.6174ZM89.5726 102.871C107.92 106.037 125.562 93.7358 128.885 75.43L122.981 74.3586C120.249 89.4137 105.705 99.5665 90.5929 96.9586L89.5726 102.871ZM128.885 75.4251C132.208 56.9425 119.795 39.3409 101.428 36.1713L100.407 42.0839C115.499 44.6882 125.712 59.1644 122.98 74.3635L128.885 75.4251ZM101.414 36.1689C99.3629 35.8248 97.4428 35.6464 95.5001 35.6464V41.6464C97.0628 41.6464 98.6479 41.7887 100.421 42.0862L101.414 36.1689Z" fill="url(#paint27_linear_1_496)" mask="url(#path-27-inside-14_1_496)"/>
<mask id="path-29-inside-15_1_496" fill="white">
<path d="M91.5 113C85.925 113 80.3501 111.556 75.253 108.667C67.7666 104.334 62.3509 97.2731 60.121 88.9282C57.891 80.5832 59.006 71.7569 63.3067 64.2144C67.6073 56.6719 74.6158 51.3761 83.0579 49.1294C91.5 46.8827 100.261 48.006 107.747 52.3389C115.233 56.6719 120.649 63.733 122.879 72.0779C125.109 80.4228 123.994 89.2491 119.693 96.7916C115.393 104.334 108.384 109.63 99.9421 111.877C97.2342 112.679 94.3671 113 91.5 113ZM91.6593 49.6108C88.9515 49.6108 86.2436 49.9318 83.5358 50.7342C75.5716 52.8204 68.8816 57.9557 64.7402 65.1773C60.5988 72.3988 59.4838 80.5833 61.7138 88.6072C63.7845 96.6312 69.0409 103.211 76.0494 107.383C83.2172 111.556 91.5 112.679 99.4642 110.432C107.428 108.346 114.118 103.211 118.26 95.9892C122.401 88.7677 123.516 80.5833 121.286 72.5593C119.215 64.5354 113.959 57.9557 106.951 53.7833C102.172 51.0551 96.9157 49.6108 91.6593 49.6108Z"/>
</mask>
<path d="M91.5 113C85.925 113 80.3501 111.556 75.253 108.667C67.7666 104.334 62.3509 97.2731 60.121 88.9282C57.891 80.5832 59.006 71.7569 63.3067 64.2144C67.6073 56.6719 74.6158 51.3761 83.0579 49.1294C91.5 46.8827 100.261 48.006 107.747 52.3389C115.233 56.6719 120.649 63.733 122.879 72.0779C125.109 80.4228 123.994 89.2491 119.693 96.7916C115.393 104.334 108.384 109.63 99.9421 111.877C97.2342 112.679 94.3671 113 91.5 113ZM91.6593 49.6108C88.9515 49.6108 86.2436 49.9318 83.5358 50.7342C75.5716 52.8204 68.8816 57.9557 64.7402 65.1773C60.5988 72.3988 59.4838 80.5833 61.7138 88.6072C63.7845 96.6312 69.0409 103.211 76.0494 107.383C83.2172 111.556 91.5 112.679 99.4642 110.432C107.428 108.346 114.118 103.211 118.26 95.9892C122.401 88.7677 123.516 80.5833 121.286 72.5593C119.215 64.5354 113.959 57.9557 106.951 53.7833C102.172 51.0551 96.9157 49.6108 91.6593 49.6108Z" fill="url(#paint28_linear_1_496)"/>
<path d="M75.253 108.667L73.7502 111.264L73.762 111.27L73.7738 111.277L75.253 108.667ZM99.9421 111.877L99.1705 108.978L99.13 108.988L99.0897 109L99.9421 111.877ZM83.5358 50.7342L84.296 53.6362L84.3423 53.6241L84.3881 53.6105L83.5358 50.7342ZM61.7138 88.6072L64.6186 87.8576L64.6117 87.8307L64.6043 87.8039L61.7138 88.6072ZM76.0494 107.383L74.5148 109.961L74.5274 109.969L74.5402 109.976L76.0494 107.383ZM99.4642 110.432L98.704 107.53L98.6768 107.537L98.6497 107.545L99.4642 110.432ZM121.286 72.5593L118.381 73.3089L118.388 73.3358L118.396 73.3626L121.286 72.5593ZM106.951 53.7833L108.485 51.2055L108.462 51.1915L108.438 51.178L106.951 53.7833ZM91.5 110C86.4477 110 81.3818 108.692 76.7321 106.057L73.7738 111.277C79.3184 114.419 85.4024 116 91.5 116V110ZM76.7558 106.071C69.9559 102.135 65.0434 95.7283 63.0193 88.1537L57.2227 89.7027C59.6585 98.8179 65.5774 106.533 73.7502 111.264L76.7558 106.071ZM63.0193 88.1537C60.9919 80.5671 62.0052 72.5534 65.9128 65.7004L60.7005 62.7284C56.0067 70.9604 54.79 80.5994 57.2227 89.7027L63.0193 88.1537ZM65.9128 65.7004C69.8041 58.8758 76.1404 54.0748 83.8295 52.0285L82.2864 46.2303C73.0913 48.6774 65.4106 54.4679 60.7005 62.7284L65.9128 65.7004ZM83.8295 52.0285C91.5178 49.9823 99.4589 51.0082 106.244 54.9354L109.25 49.7425C101.062 45.0038 91.4822 43.783 82.2864 46.2303L83.8295 52.0285ZM106.244 54.9354C113.044 58.871 117.957 65.2777 119.981 72.8524L125.777 71.3034C123.342 62.1882 117.423 54.4727 109.25 49.7425L106.244 54.9354ZM119.981 72.8524C122.008 80.4389 120.995 88.4527 117.087 95.3056L122.299 98.2776C126.993 90.0456 128.21 80.4066 125.777 71.3034L119.981 72.8524ZM117.087 95.3056C113.196 102.13 106.86 106.931 99.1705 108.978L100.714 114.776C109.909 112.329 117.589 106.538 122.299 98.2776L117.087 95.3056ZM99.0897 109C96.7207 109.702 94.1513 110 91.5 110V116C94.5829 116 97.7478 115.656 100.794 114.753L99.0897 109ZM91.6593 46.6108C88.7111 46.6108 85.7107 46.9607 82.6834 47.8578L84.3881 53.6105C86.7765 52.9028 89.1918 52.6108 91.6593 52.6108V46.6108ZM82.7756 47.8321C74.0251 50.1243 66.6753 55.7726 62.1378 63.6848L67.3426 66.6697C71.0879 60.1388 77.118 55.5165 84.296 53.6362L82.7756 47.8321ZM62.1378 63.6848C57.6091 71.5817 56.3723 80.591 58.8234 89.4105L64.6043 87.8039C62.5954 80.5755 63.5885 73.2159 67.3426 66.6697L62.1378 63.6848ZM58.809 89.3568C61.093 98.2074 66.8818 105.417 74.5148 109.961L77.5841 104.805C71.2 101.005 66.476 95.0549 64.6186 87.8576L58.809 89.3568ZM74.5402 109.976C82.3926 114.547 91.5121 115.793 100.279 113.32L98.6497 107.545C91.4879 109.565 84.0418 108.564 77.5587 104.791L74.5402 109.976ZM100.224 113.334C108.975 111.042 116.325 105.394 120.862 97.4817L115.657 94.4968C111.912 101.028 105.882 105.65 98.704 107.53L100.224 113.334ZM120.862 97.4817C125.391 89.5848 126.628 80.5755 124.177 71.756L118.396 73.3626C120.405 80.591 119.411 87.9506 115.657 94.4968L120.862 97.4817ZM124.191 71.8097C121.907 62.9591 116.118 55.7497 108.485 51.2055L105.416 56.361C111.8 60.1617 116.524 66.1116 118.381 73.3089L124.191 71.8097ZM108.438 51.178C103.234 48.2067 97.4678 46.6108 91.6593 46.6108V52.6108C96.3636 52.6108 101.111 53.9036 105.463 56.3886L108.438 51.178Z" fill="url(#paint29_linear_1_496)" mask="url(#path-29-inside-15_1_496)"/>
<mask id="path-31-inside-16_1_496" fill="white">
<path d="M36.5022 81C30.9269 81 25.3516 79.5565 20.2541 76.6695C12.7672 72.3389 7.35118 65.2818 5.12104 56.9415C2.8909 48.6012 4.00597 39.7798 8.30695 32.2414C17.2275 16.6836 37.1394 11.3907 52.7504 20.3726C68.202 29.3544 73.6181 49.2428 64.6975 64.8006C60.3966 72.3389 53.3876 77.6318 44.9449 79.8773C42.2369 80.5188 39.3696 81 36.5022 81ZM36.6615 17.6459C33.9535 17.6459 31.2455 17.9667 28.5375 18.7687C20.5727 20.8537 13.8823 25.9862 9.74061 33.2038C5.59893 40.4213 4.48386 48.6012 6.71399 56.6207C8.94413 64.6402 14.0416 71.2162 21.0506 75.3863C28.2189 79.5565 36.5022 80.6792 44.467 78.4338C52.4318 76.3487 59.1222 71.2162 63.2639 63.9987C71.7065 49.2428 66.7684 30.3168 51.9539 21.8161C47.3343 18.9291 42.0776 17.6459 36.6615 17.6459Z"/>
</mask>
<path d="M36.5022 81C30.9269 81 25.3516 79.5565 20.2541 76.6695C12.7672 72.3389 7.35118 65.2818 5.12104 56.9415C2.8909 48.6012 4.00597 39.7798 8.30695 32.2414C17.2275 16.6836 37.1394 11.3907 52.7504 20.3726C68.202 29.3544 73.6181 49.2428 64.6975 64.8006C60.3966 72.3389 53.3876 77.6318 44.9449 79.8773C42.2369 80.5188 39.3696 81 36.5022 81ZM36.6615 17.6459C33.9535 17.6459 31.2455 17.9667 28.5375 18.7687C20.5727 20.8537 13.8823 25.9862 9.74061 33.2038C5.59893 40.4213 4.48386 48.6012 6.71399 56.6207C8.94413 64.6402 14.0416 71.2162 21.0506 75.3863C28.2189 79.5565 36.5022 80.6792 44.467 78.4338C52.4318 76.3487 59.1222 71.2162 63.2639 63.9987C71.7065 49.2428 66.7684 30.3168 51.9539 21.8161C47.3343 18.9291 42.0776 17.6459 36.6615 17.6459Z" fill="url(#paint30_linear_1_496)"/>
<path d="M20.2541 76.6695L18.752 79.2663L18.7638 79.2732L18.7757 79.2799L20.2541 76.6695ZM8.30695 32.2414L5.7044 30.7492L5.70123 30.7547L8.30695 32.2414ZM52.7504 20.3726L54.2581 17.7789L54.2465 17.7723L52.7504 20.3726ZM64.6975 64.8006L62.095 63.3084L62.0918 63.3139L64.6975 64.8006ZM44.9449 79.8773L45.6365 82.7965L45.6764 82.787L45.716 82.7765L44.9449 79.8773ZM28.5375 18.7687L29.2972 21.6709L29.3435 21.6588L29.3893 21.6452L28.5375 18.7687ZM21.0506 75.3863L19.5166 77.9645L19.5293 77.9721L19.542 77.9795L21.0506 75.3863ZM44.467 78.4338L43.7073 75.5316L43.6801 75.5387L43.653 75.5463L44.467 78.4338ZM63.2639 63.9987L65.8659 65.4918L65.8678 65.4885L63.2639 63.9987ZM51.9539 21.8161L50.364 24.3601L50.4119 24.39L50.4608 24.4181L51.9539 21.8161ZM36.5022 78C31.4492 78 26.3827 76.6927 21.7325 74.0591L18.7757 79.2799C24.3204 82.4202 30.4046 84 36.5022 84V78ZM21.7562 74.0726C14.9556 70.1391 10.0433 63.7361 8.01922 56.1665L2.22286 57.7165C4.65909 66.8275 10.5788 74.5388 18.752 79.2663L21.7562 74.0726ZM8.01922 56.1665C5.99199 48.5851 7.0052 40.5767 10.9127 33.7281L5.70123 30.7547C1.00674 38.9828 -0.210184 48.6173 2.22286 57.7165L8.01922 56.1665ZM10.9095 33.7337C18.9954 19.6315 37.0641 14.8085 51.2543 22.9729L54.2465 17.7723C37.2148 7.97298 15.4596 13.7357 5.70441 30.7492L10.9095 33.7337ZM51.2427 22.9662C65.2771 31.1242 70.1896 49.191 62.095 63.3084L67.3001 66.2928C77.0465 49.2946 71.127 27.5846 54.258 17.7789L51.2427 22.9662ZM62.0918 63.3139C58.2005 70.1342 51.8639 74.9328 44.1738 76.9781L45.716 82.7765C54.9112 80.3309 62.5926 74.5437 67.3033 66.2873L62.0918 63.3139ZM44.2533 76.9581C41.6655 77.5711 39.0482 78 36.5022 78V84C39.691 84 42.8082 83.4665 45.6365 82.7965L44.2533 76.9581ZM36.6615 14.6459C33.7133 14.6459 30.7129 14.9957 27.6856 15.8922L29.3893 21.6452C31.7781 20.9378 34.1937 20.6459 36.6615 20.6459V14.6459ZM27.7777 15.8665C19.0272 18.1572 11.6767 23.8023 7.13858 31.7106L12.3426 34.6969C16.0879 28.1702 22.1182 23.5502 29.2972 21.6709L27.7777 15.8665ZM7.13858 31.7106C2.60927 39.6037 1.37215 48.6089 3.82367 57.4245L9.60432 55.8169C7.59556 48.5935 8.58858 41.239 12.3426 34.6969L7.13858 31.7106ZM3.82367 57.4245C6.2625 66.1944 11.8498 73.403 19.5166 77.9645L22.5845 72.8082C16.2334 69.0294 11.6258 63.086 9.60432 55.8169L3.82367 57.4245ZM19.542 77.9795C27.3948 82.5478 36.5144 83.7927 45.2811 81.3212L43.653 75.5463C36.4901 77.5657 29.043 76.5652 22.5591 72.7932L19.542 77.9795ZM45.2268 81.336C53.9773 79.0452 61.3278 73.4002 65.8659 65.4918L60.6619 62.5055C56.9166 69.0322 50.8863 73.6522 43.7073 75.5316L45.2268 81.336ZM65.8678 65.4885C75.1179 49.3214 69.7227 28.5532 53.447 19.214L50.4608 24.4181C63.814 32.0803 68.2952 49.1642 60.66 62.5088L65.8678 65.4885ZM53.5438 19.272C48.3797 16.0447 42.5542 14.6459 36.6615 14.6459V20.6459C41.601 20.6459 46.2889 21.8134 50.364 24.3601L53.5438 19.272Z" fill="url(#paint31_linear_1_496)" mask="url(#path-31-inside-16_1_496)"/>
<mask id="path-33-inside-17_1_496" fill="white">
<path d="M43.5 73C34.2534 73 25.0068 68.9837 18.6298 61.4331C13.0499 54.8463 10.3397 46.3317 11.1368 37.6565C11.9339 28.9813 15.9196 21.1094 22.6154 15.6472C29.3112 10.0244 37.7607 7.45394 46.3696 8.09655C54.9786 8.89981 62.7904 12.9161 68.3702 19.6635C73.9501 26.2502 76.6603 34.7648 75.8632 43.44C75.0661 52.1152 71.0804 59.9872 64.3846 65.4494C58.3265 70.5902 50.993 73 43.5 73ZM43.5 9.54242C36.3259 9.54242 29.3112 12.1129 23.7314 16.7718C17.3544 22.0733 13.5282 29.6239 12.7311 37.8172C11.9339 46.0104 14.4847 54.0431 19.9052 60.4691C30.9055 73.482 50.3553 75.2491 63.4281 64.3248C69.805 59.0233 73.6312 51.4726 74.4284 43.2794C75.2255 35.0861 72.6747 27.0535 67.2542 20.6274C61.9932 14.362 54.5003 10.3457 46.2102 9.70307C45.2537 9.54242 44.2971 9.54242 43.5 9.54242Z"/>
</mask>
<path d="M43.5 73C34.2534 73 25.0068 68.9837 18.6298 61.4331C13.0499 54.8463 10.3397 46.3317 11.1368 37.6565C11.9339 28.9813 15.9196 21.1094 22.6154 15.6472C29.3112 10.0244 37.7607 7.45394 46.3696 8.09655C54.9786 8.89981 62.7904 12.9161 68.3702 19.6635C73.9501 26.2502 76.6603 34.7648 75.8632 43.44C75.0661 52.1152 71.0804 59.9872 64.3846 65.4494C58.3265 70.5902 50.993 73 43.5 73ZM43.5 9.54242C36.3259 9.54242 29.3112 12.1129 23.7314 16.7718C17.3544 22.0733 13.5282 29.6239 12.7311 37.8172C11.9339 46.0104 14.4847 54.0431 19.9052 60.4691C30.9055 73.482 50.3553 75.2491 63.4281 64.3248C69.805 59.0233 73.6312 51.4726 74.4284 43.2794C75.2255 35.0861 72.6747 27.0535 67.2542 20.6274C61.9932 14.362 54.5003 10.3457 46.2102 9.70307C45.2537 9.54242 44.2971 9.54242 43.5 9.54242Z" fill="url(#paint32_linear_1_496)"/>
<path d="M18.6298 61.4331L20.9217 59.4974L20.9188 59.4939L18.6298 61.4331ZM22.6154 15.6472L24.5117 17.9718L24.5283 17.9583L24.5446 17.9446L22.6154 15.6472ZM46.3696 8.09655L46.6483 5.10953L46.6207 5.10694L46.593 5.10488L46.3696 8.09655ZM68.3702 19.6635L66.0583 21.5754L66.0697 21.5891L66.0812 21.6026L68.3702 19.6635ZM64.3846 65.4494L62.4883 63.1247L62.4657 63.1431L62.4435 63.1619L64.3846 65.4494ZM23.7314 16.7718L25.6492 19.0787L25.6541 19.0746L23.7314 16.7718ZM19.9052 60.4691L17.612 62.4034L17.6141 62.4059L19.9052 60.4691ZM63.4281 64.3248L61.5102 62.0179L61.5044 62.0228L63.4281 64.3248ZM67.2542 20.6274L64.9568 22.5566L64.9611 22.5617L67.2542 20.6274ZM46.2102 9.70307L45.7133 12.6616L45.8451 12.6838L45.9784 12.6941L46.2102 9.70307ZM43.5 70C35.109 70 26.711 66.3521 20.9217 59.4974L16.3378 63.3687C23.3025 71.6153 33.3978 76 43.5 76V70ZM20.9188 59.4939C15.8581 53.52 13.401 45.8026 14.1242 37.931L8.14941 37.382C7.27844 46.8609 10.2417 56.1726 16.3407 63.3722L20.9188 59.4939ZM14.1242 37.931C14.8523 30.0076 18.4782 22.8937 24.5117 17.9718L20.7191 13.3226C13.3609 19.325 9.01561 27.9551 8.14941 37.382L14.1242 37.931ZM24.5446 17.9446C30.6164 12.8458 38.2854 10.5015 46.1463 11.0882L46.593 5.10488C37.236 4.40643 28.006 7.20296 20.6861 13.3498L24.5446 17.9446ZM46.0909 11.0836C53.9269 11.8147 60.9996 15.4581 66.0583 21.5754L70.6821 17.7517C64.5812 10.3741 56.0302 5.9849 46.6483 5.10953L46.0909 11.0836ZM66.0812 21.6026C71.1419 27.5766 73.599 35.2939 72.8758 43.1655L78.8506 43.7145C79.7216 34.2357 76.7583 24.9239 70.6593 17.7244L66.0812 21.6026ZM72.8758 43.1655C72.1477 51.089 68.5218 58.2029 62.4883 63.1247L66.2809 67.774C73.6391 61.7715 77.9844 53.1415 78.8506 43.7145L72.8758 43.1655ZM62.4435 63.1619C56.9675 67.8089 50.3361 70 43.5 70V76C51.6498 76 59.6855 73.3716 66.3257 67.7368L62.4435 63.1619ZM43.5 6.54242C35.6108 6.54242 27.9184 9.36757 21.8086 14.4689L25.6541 19.0746C30.7041 14.8581 37.041 12.5424 43.5 12.5424V6.54242ZM21.8135 14.4649C14.7999 20.2956 10.6151 28.5851 9.74517 37.5267L15.717 38.1077C16.4413 30.6628 19.9088 23.8509 25.6492 19.0787L21.8135 14.4649ZM9.74517 37.5267C8.86765 46.5463 11.6846 55.3762 17.612 62.4034L22.1983 58.5349C17.2849 52.7099 15.0002 45.4746 15.717 38.1077L9.74517 37.5267ZM17.6141 62.4059C29.6702 76.6677 51.0014 78.6187 65.3518 66.6268L61.5044 62.0228C49.7091 71.8795 32.1407 70.2962 22.1962 58.5324L17.6141 62.4059ZM65.3459 66.6317C72.3595 60.8009 76.5443 52.5115 77.4143 43.5699L71.4425 42.9889C70.7181 50.4338 67.2506 57.2456 61.5102 62.0179L65.3459 66.6317ZM77.4143 43.5699C78.2918 34.5503 75.4749 25.7203 69.5474 18.6931L64.9611 22.5617C69.8745 28.3867 72.1592 35.6219 71.4425 42.9889L77.4143 43.5699ZM69.5517 18.6983C63.7937 11.8409 55.5674 7.4194 46.4421 6.71205L45.9784 12.6941C53.4332 13.272 60.1928 16.883 64.9568 22.5566L69.5517 18.6983ZM46.7071 6.74451C45.4673 6.53628 44.2681 6.54242 43.5 6.54242V12.5424C44.3262 12.5424 45.0401 12.5486 45.7133 12.6616L46.7071 6.74451Z" fill="url(#paint33_linear_1_496)" mask="url(#path-33-inside-17_1_496)"/>
<mask id="path-35-inside-18_1_496" fill="white">
<path d="M84.5 121C75.2379 121 65.9758 116.983 59.5881 109.431C48.0904 95.6117 49.847 75.2047 63.5804 63.6354C77.3139 52.066 97.9141 53.8336 109.412 67.6525C120.91 81.4714 119.153 101.878 105.42 113.448C99.3513 118.429 91.8458 121 84.5 121ZM84.5 57.5293C77.4736 57.5293 70.4472 59.9396 64.5386 64.7602C51.4439 75.6868 49.6873 95.2904 60.706 108.306C71.7247 121.321 91.207 123.089 104.302 112.162C117.396 101.236 119.153 81.6321 108.134 68.6166C102.066 61.2251 93.283 57.5293 84.5 57.5293Z"/>
</mask>
<path d="M84.5 121C75.2379 121 65.9758 116.983 59.5881 109.431C48.0904 95.6117 49.847 75.2047 63.5804 63.6354C77.3139 52.066 97.9141 53.8336 109.412 67.6525C120.91 81.4714 119.153 101.878 105.42 113.448C99.3513 118.429 91.8458 121 84.5 121ZM84.5 57.5293C77.4736 57.5293 70.4472 59.9396 64.5386 64.7602C51.4439 75.6868 49.6873 95.2904 60.706 108.306C71.7247 121.321 91.207 123.089 104.302 112.162C117.396 101.236 119.153 81.6321 108.134 68.6166C102.066 61.2251 93.283 57.5293 84.5 57.5293Z" fill="url(#paint34_linear_1_496)"/>
<path d="M59.5881 109.431L57.282 111.349L57.2898 111.359L57.2976 111.368L59.5881 109.431ZM105.42 113.448L107.323 115.767L107.338 115.754L107.352 115.742L105.42 113.448ZM64.5386 64.7602L62.6421 62.4356L62.6293 62.4461L62.6165 62.4567L64.5386 64.7602ZM108.134 68.6166L105.816 70.5202L105.83 70.5377L105.845 70.555L108.134 68.6166ZM84.5 118C76.0919 118 67.6781 114.35 61.8787 107.493L57.2976 111.368C64.2735 119.616 74.3839 124 84.5 124V118ZM61.8943 107.512C51.4453 94.9535 53.049 76.4298 65.5133 65.9297L61.6476 61.341C46.6449 73.9796 44.7354 96.27 57.282 111.349L61.8943 107.512ZM65.5133 65.9297C77.9807 55.4269 96.6777 57.0381 107.106 69.5713L111.718 65.7337C99.1504 50.629 76.6471 48.7051 61.6476 61.341L65.5133 65.9297ZM107.106 69.5713C117.555 82.1297 115.951 100.653 103.487 111.153L107.352 115.742C122.355 103.104 124.265 80.8132 111.718 65.7337L107.106 69.5713ZM103.516 111.129C97.9895 115.666 91.1582 118 84.5 118V124C92.5334 124 100.713 121.192 107.323 115.767L103.516 111.129ZM84.5 54.5293C76.7785 54.5293 69.0831 57.1807 62.6421 62.4356L66.435 67.0847C71.8112 62.6985 78.1687 60.5293 84.5 60.5293V54.5293ZM62.6165 62.4567C48.2512 74.4436 46.315 95.9499 58.4163 110.244L62.9957 106.367C53.0596 94.6308 54.6365 76.93 66.4606 67.0636L62.6165 62.4567ZM58.4163 110.244C70.4912 124.507 91.8526 126.457 106.224 114.466L102.38 109.859C90.5614 119.72 72.9582 118.135 62.9957 106.367L58.4163 110.244ZM106.224 114.466C120.589 102.479 122.525 80.9725 110.424 66.6782L105.845 70.555C115.781 82.2917 114.204 99.9925 102.38 109.859L106.224 114.466ZM110.453 66.713C103.777 58.5807 94.1189 54.5293 84.5 54.5293V60.5293C92.4471 60.5293 100.355 63.8694 105.816 70.5202L110.453 66.713Z" fill="url(#paint35_linear_1_496)" mask="url(#path-35-inside-18_1_496)"/>
<mask id="path-37-inside-19_1_496" fill="white">
<path d="M75.5798 126C62.334 126 49.7266 117.824 44.939 104.679C38.8747 87.847 47.4924 69.2514 64.4087 62.9995C72.5476 59.9536 81.4845 60.4346 89.3043 64.1216C97.1241 67.8087 103.188 74.2209 106.061 82.3966C112.125 99.2288 103.508 117.824 86.5913 124.076C83.0804 125.359 79.2503 126 75.5798 126ZM75.5798 62.6789C72.0689 62.6789 68.3984 63.3201 65.047 64.6025C48.9287 70.3736 40.6302 88.1676 46.5349 104.198C52.4396 120.229 70.1538 128.405 86.2721 122.634C94.0919 119.748 100.316 114.137 103.667 106.603C107.178 99.0685 107.497 90.7325 104.625 83.0378C101.752 75.3431 96.1666 69.0911 88.666 65.5644C84.5167 63.6407 80.0482 62.6789 75.5798 62.6789Z"/>
</mask>
<path d="M75.5798 126C62.334 126 49.7266 117.824 44.939 104.679C38.8747 87.847 47.4924 69.2514 64.4087 62.9995C72.5476 59.9536 81.4845 60.4346 89.3043 64.1216C97.1241 67.8087 103.188 74.2209 106.061 82.3966C112.125 99.2288 103.508 117.824 86.5913 124.076C83.0804 125.359 79.2503 126 75.5798 126ZM75.5798 62.6789C72.0689 62.6789 68.3984 63.3201 65.047 64.6025C48.9287 70.3736 40.6302 88.1676 46.5349 104.198C52.4396 120.229 70.1538 128.405 86.2721 122.634C94.0919 119.748 100.316 114.137 103.667 106.603C107.178 99.0685 107.497 90.7325 104.625 83.0378C101.752 75.3431 96.1666 69.0911 88.666 65.5644C84.5167 63.6407 80.0482 62.6789 75.5798 62.6789Z" fill="url(#paint36_linear_1_496)"/>
<path d="M44.939 104.679L42.1166 105.696L42.1202 105.706L44.939 104.679ZM64.4087 62.9995L65.4487 65.8135L65.4601 65.8092L64.4087 62.9995ZM106.061 82.3966L103.231 83.3911L103.235 83.4023L103.239 83.4134L106.061 82.3966ZM86.5913 124.076L87.6206 126.894L87.6313 126.89L86.5913 124.076ZM65.047 64.6025L66.0583 67.427L66.0889 67.416L66.1192 67.4044L65.047 64.6025ZM86.2721 122.634L87.2834 125.458L87.2971 125.453L87.3107 125.448L86.2721 122.634ZM103.667 106.603L100.948 105.336L100.937 105.36L100.926 105.384L103.667 106.603ZM88.666 65.5644L89.9425 62.8495L89.9351 62.8461L89.9278 62.8427L88.666 65.5644ZM75.5798 123C63.5349 123 52.0938 115.557 47.7579 103.653L42.1202 105.706C47.3595 120.091 61.1332 129 75.5798 129V123ZM47.7614 103.662C42.2565 88.3829 50.0745 71.4955 65.4487 65.8134L63.3687 60.1855C44.9104 67.0074 35.4928 87.3111 42.1166 105.696L47.7614 103.662ZM65.4601 65.8092C72.8164 63.0563 80.9132 63.4819 88.0249 66.8351L90.5837 61.4081C82.0559 57.3872 72.2789 56.851 63.3572 60.1898L65.4601 65.8092ZM88.0249 66.8351C95.1666 70.2025 100.641 76.0216 103.231 83.3911L108.891 81.4021C105.736 72.4203 99.0816 65.4149 90.5837 61.4081L88.0249 66.8351ZM103.239 83.4134C108.743 98.6928 100.926 115.58 85.5513 121.262L87.6313 126.89C106.09 120.068 115.507 99.7647 108.883 81.3797L103.239 83.4134ZM85.562 121.258C82.3959 122.415 78.9155 123 75.5798 123V129C79.5851 129 83.7649 128.303 87.6206 126.894L85.562 121.258ZM75.5798 59.6789C71.7191 59.6789 67.6838 60.3814 63.9748 61.8007L66.1192 67.4044C69.1129 66.2588 72.4186 65.6789 75.5798 65.6789V59.6789ZM64.0358 61.7781C46.3476 68.1112 37.2387 87.6397 43.7198 105.235L49.35 103.161C44.0216 88.6955 51.5098 72.6359 66.0583 67.427L64.0358 61.7781ZM43.7198 105.235C50.1998 122.828 69.6325 131.778 87.2834 125.458L85.2609 119.809C70.6751 125.031 54.6794 117.63 49.35 103.161L43.7198 105.235ZM87.3107 125.448C95.844 122.299 102.708 116.14 106.408 107.822L100.926 105.384C97.9232 112.135 92.3399 117.197 85.2336 119.819L87.3107 125.448ZM106.386 107.87C110.236 99.6093 110.59 90.439 107.435 81.9886L101.814 84.087C104.405 91.0261 104.12 98.5276 100.948 105.336L106.386 107.87ZM107.435 81.9886C104.299 73.5883 98.1796 66.7226 89.9425 62.8495L87.3894 68.2792C94.1535 71.4597 99.205 77.0979 101.814 84.087L107.435 81.9886ZM89.9278 62.8427C85.3783 60.7334 80.4787 59.6789 75.5798 59.6789V65.6789C79.6178 65.6789 83.6551 66.548 87.4041 68.2861L89.9278 62.8427Z" fill="url(#paint37_linear_1_496)" mask="url(#path-37-inside-19_1_496)"/>
<mask id="path-39-inside-20_1_496" fill="white">
<path d="M52.4203 67C47.7996 67 43.0196 66.0372 38.7175 63.9511C30.9101 60.2603 24.8554 53.8415 21.9874 45.6575C18.96 37.4735 19.438 28.6477 23.1027 20.7847C26.7674 12.9216 33.3001 6.98426 41.4262 3.93533C49.5523 1.04687 58.4751 1.36781 66.2825 5.05862C74.0899 8.74943 80.1446 15.1682 83.0126 23.3522C86.04 31.5361 85.562 40.362 81.8973 48.225C78.2326 56.088 71.6999 62.0254 63.5738 65.0744C59.9091 66.3581 56.085 67 52.4203 67ZM52.4203 3.61439C48.915 3.61439 45.2503 4.25627 41.9042 5.54003C34.0968 8.42848 27.8827 14.0449 24.5367 21.587C20.872 28.9686 20.5533 37.3131 23.4214 45.0156C26.2894 52.7182 31.8661 58.9765 39.3549 62.5068C46.8436 66.0372 55.2884 66.3581 62.9364 63.4697C70.7439 60.5812 76.9579 54.9648 80.304 47.4227C83.65 39.8806 84.128 31.5361 81.26 23.8336C78.3919 16.131 72.8152 9.87271 65.3265 6.34238C61.3431 4.57721 56.8817 3.61439 52.4203 3.61439Z"/>
</mask>
<path d="M52.4203 67C47.7996 67 43.0196 66.0372 38.7175 63.9511C30.9101 60.2603 24.8554 53.8415 21.9874 45.6575C18.96 37.4735 19.438 28.6477 23.1027 20.7847C26.7674 12.9216 33.3001 6.98426 41.4262 3.93533C49.5523 1.04687 58.4751 1.36781 66.2825 5.05862C74.0899 8.74943 80.1446 15.1682 83.0126 23.3522C86.04 31.5361 85.562 40.362 81.8973 48.225C78.2326 56.088 71.6999 62.0254 63.5738 65.0744C59.9091 66.3581 56.085 67 52.4203 67ZM52.4203 3.61439C48.915 3.61439 45.2503 4.25627 41.9042 5.54003C34.0968 8.42848 27.8827 14.0449 24.5367 21.587C20.872 28.9686 20.5533 37.3131 23.4214 45.0156C26.2894 52.7182 31.8661 58.9765 39.3549 62.5068C46.8436 66.0372 55.2884 66.3581 62.9364 63.4697C70.7439 60.5812 76.9579 54.9648 80.304 47.4227C83.65 39.8806 84.128 31.5361 81.26 23.8336C78.3919 16.131 72.8152 9.87271 65.3265 6.34238C61.3431 4.57721 56.8817 3.61439 52.4203 3.61439Z" fill="url(#paint38_linear_1_496)"/>
<path d="M38.7175 63.9511L40.0265 61.2517L40.0131 61.2452L39.9997 61.2389L38.7175 63.9511ZM21.9874 45.6575L24.8185 44.6653L24.81 44.6409L24.801 44.6167L21.9874 45.6575ZM41.4262 3.93533L40.4214 1.10859L40.3968 1.11735L40.3723 1.12653L41.4262 3.93533ZM83.0126 23.3522L80.1815 24.3444L80.19 24.3688L80.199 24.393L83.0126 23.3522ZM63.5738 65.0744L64.5656 67.9057L64.5967 67.8948L64.6277 67.8832L63.5738 65.0744ZM41.9042 5.54003L42.9452 8.35365L42.962 8.3474L42.9788 8.34095L41.9042 5.54003ZM24.5367 21.587L27.2238 22.921L27.2526 22.8629L27.279 22.8036L24.5367 21.587ZM62.9364 63.4697L61.8955 60.656L61.886 60.6596L61.8765 60.6631L62.9364 63.4697ZM65.3265 6.34238L66.6057 3.62879L66.574 3.61383L66.5419 3.59961L65.3265 6.34238ZM52.4203 64C48.2025 64 43.8773 63.119 40.0265 61.2517L37.4086 66.6504C42.1618 68.9553 47.3968 70 52.4203 70V64ZM39.9997 61.2389C32.8714 57.8691 27.4046 52.0446 24.8185 44.6653L19.1562 46.6497C22.3062 55.6383 28.9488 62.6514 37.4354 66.6633L39.9997 61.2389ZM24.801 44.6167C22.061 37.2094 22.4838 29.2142 25.8219 22.052L20.3835 19.5173C16.3922 28.0812 15.859 37.7377 19.1737 46.6983L24.801 44.6167ZM25.8219 22.052C29.146 14.9198 35.0699 9.52444 42.4801 6.74413L40.3723 1.12653C31.5304 4.44407 24.3888 10.9235 20.3835 19.5173L25.8219 22.052ZM42.431 6.76206C49.8397 4.12861 57.9384 4.43245 65.0003 7.77083L67.5646 2.34641C59.0117 -1.69683 49.2649 -2.03487 40.4214 1.10859L42.431 6.76206ZM65.0003 7.77083C72.1286 11.1406 77.5954 16.9651 80.1815 24.3444L85.8438 22.36C82.6938 13.3713 76.0512 6.35826 67.5646 2.34641L65.0003 7.77083ZM80.199 24.393C82.939 31.8003 82.5162 39.7955 79.1781 46.9577L84.6165 49.4923C88.6078 40.9285 89.141 31.272 85.8263 22.3114L80.199 24.393ZM79.1781 46.9577C75.854 54.0899 69.9301 59.4852 62.5199 62.2656L64.6277 67.8832C73.4696 64.5656 80.6112 58.0862 84.6165 49.4923L79.1781 46.9577ZM62.582 62.2431C59.231 63.4169 55.742 64 52.4203 64V70C56.428 70 60.5871 69.2993 64.5656 67.9057L62.582 62.2431ZM52.4203 0.614388C48.5643 0.614388 44.5339 1.3179 40.8296 2.7391L42.9788 8.34095C45.9666 7.19464 49.2656 6.61439 52.4203 6.61439V0.614388ZM40.8633 2.72641C32.3409 5.87939 25.4876 12.0461 21.7945 20.3704L27.279 22.8036C30.2779 16.0438 35.8527 10.9776 42.9452 8.35365L40.8633 2.72641ZM21.8496 20.253C17.8028 28.4044 17.4636 37.6123 20.6099 46.0625L26.2328 43.9688C23.6431 37.0138 23.9413 29.5329 27.2238 22.921L21.8496 20.253ZM20.6099 46.0625C23.7402 54.4692 29.8494 61.3424 38.0756 65.2204L40.6341 59.7933C33.8828 56.6106 28.8386 50.9672 26.2328 43.9688L20.6099 46.0625ZM38.0756 65.2204C46.2979 69.0966 55.5867 69.4523 63.9964 66.2762L61.8765 60.6631C54.99 63.264 47.3893 62.9778 40.6341 59.7933L38.0756 65.2204ZM63.9774 66.2833C72.4998 63.1303 79.3531 56.9636 83.0462 48.6393L77.5617 46.2061C74.5627 52.9659 68.9879 58.0321 61.8955 60.656L63.9774 66.2833ZM83.0462 48.6393C86.6846 40.4382 87.2341 31.2808 84.0714 22.7868L78.4485 24.8804C81.0219 31.7915 80.6154 39.3229 77.5617 46.2061L83.0462 48.6393ZM84.0714 22.7868C80.9412 14.38 74.8319 7.50678 66.6057 3.62879L64.0472 9.05596C70.7985 12.2387 75.8427 17.882 78.4485 24.8804L84.0714 22.7868ZM66.5419 3.59961C62.1789 1.66621 57.3038 0.614388 52.4203 0.614388V6.61439C56.4597 6.61439 60.5073 7.4882 64.111 9.08514L66.5419 3.59961Z" fill="url(#paint39_linear_1_496)" mask="url(#path-39-inside-20_1_496)"/>
<mask id="path-41-inside-21_1_496" fill="white">
<path d="M63.5 65C45.6569 65 31 50.3951 31 32.5802C31 14.7654 45.6569 0 63.5 0C81.3431 0 96 14.6049 96 32.4198C96 50.2346 81.3431 65 63.5 65ZM63.5 1.60494C46.4534 1.60494 32.5931 15.4074 32.5931 32.5802C32.5931 49.7531 46.4534 63.3951 63.5 63.3951C80.5466 63.3951 94.4069 49.5926 94.4069 32.4198C94.4069 15.2469 80.5466 1.60494 63.5 1.60494Z"/>
</mask>
<path d="M63.5 65C45.6569 65 31 50.3951 31 32.5802C31 14.7654 45.6569 0 63.5 0C81.3431 0 96 14.6049 96 32.4198C96 50.2346 81.3431 65 63.5 65ZM63.5 1.60494C46.4534 1.60494 32.5931 15.4074 32.5931 32.5802C32.5931 49.7531 46.4534 63.3951 63.5 63.3951C80.5466 63.3951 94.4069 49.5926 94.4069 32.4198C94.4069 15.2469 80.5466 1.60494 63.5 1.60494Z" fill="url(#paint40_linear_1_496)"/>
<path d="M63.5 62C47.3058 62 34 48.7303 34 32.5802H28C28 52.0598 44.008 68 63.5 68V62ZM34 32.5802C34 16.411 47.325 3 63.5 3V-3C43.9887 -3 28 13.1199 28 32.5802H34ZM63.5 3C79.6942 3 93 16.2697 93 32.4198H99C99 12.9402 82.992 -3 63.5 -3V3ZM93 32.4198C93 48.589 79.675 62 63.5 62V68C83.0113 68 99 51.8801 99 32.4198H93ZM63.5 -1.39506C44.7959 -1.39506 29.5931 13.7512 29.5931 32.5802H35.5931C35.5931 17.0636 48.111 4.60494 63.5 4.60494V-1.39506ZM29.5931 32.5802C29.5931 51.4296 44.8163 66.3951 63.5 66.3951V60.3951C48.0906 60.3951 35.5931 48.0766 35.5931 32.5802H29.5931ZM63.5 66.3951C82.2041 66.3951 97.4069 51.2488 97.4069 32.4198H91.4069C91.4069 47.9364 78.889 60.3951 63.5 60.3951V66.3951ZM97.4069 32.4198C97.4069 13.5704 82.1837 -1.39506 63.5 -1.39506V4.60494C78.9094 4.60494 91.4069 16.9234 91.4069 32.4198H97.4069Z" fill="url(#paint41_linear_1_496)" mask="url(#path-41-inside-21_1_496)"/>
<mask id="path-43-inside-22_1_496" fill="white">
<path d="M63.5 128C45.6569 128 31 113.395 31 95.5803C31 77.7654 45.6569 63 63.5 63C81.3431 63 96 77.6049 96 95.4197C96 113.235 81.3431 128 63.5 128ZM63.5 64.6049C46.4534 64.6049 32.5931 78.4074 32.5931 95.5803C32.5931 112.753 46.4534 126.395 63.5 126.395C80.5466 126.395 94.4069 112.593 94.4069 95.4197C94.4069 78.2469 80.5466 64.6049 63.5 64.6049Z"/>
</mask>
<path d="M63.5 128C45.6569 128 31 113.395 31 95.5803C31 77.7654 45.6569 63 63.5 63C81.3431 63 96 77.6049 96 95.4197C96 113.235 81.3431 128 63.5 128ZM63.5 64.6049C46.4534 64.6049 32.5931 78.4074 32.5931 95.5803C32.5931 112.753 46.4534 126.395 63.5 126.395C80.5466 126.395 94.4069 112.593 94.4069 95.4197C94.4069 78.2469 80.5466 64.6049 63.5 64.6049Z" fill="url(#paint42_linear_1_496)"/>
<path d="M63.5 125C47.3058 125 34 111.73 34 95.5803H28C28 115.06 44.008 131 63.5 131V125ZM34 95.5803C34 79.411 47.325 66 63.5 66V60C43.9887 60 28 76.1199 28 95.5803H34ZM63.5 66C79.6942 66 93 79.2697 93 95.4197H99C99 75.9401 82.992 60 63.5 60V66ZM93 95.4197C93 111.589 79.675 125 63.5 125V131C83.0113 131 99 114.88 99 95.4197H93ZM63.5 61.6049C44.7959 61.6049 29.5931 76.7512 29.5931 95.5803H35.5931C35.5931 80.0636 48.111 67.6049 63.5 67.6049V61.6049ZM29.5931 95.5803C29.5931 114.43 44.8163 129.395 63.5 129.395V123.395C48.0906 123.395 35.5931 111.077 35.5931 95.5803H29.5931ZM63.5 129.395C82.2041 129.395 97.4069 114.249 97.4069 95.4197H91.4069C91.4069 110.936 78.889 123.395 63.5 123.395V129.395ZM97.4069 95.4197C97.4069 76.5704 82.1837 61.6049 63.5 61.6049V67.6049C78.9094 67.6049 91.4069 79.9234 91.4069 95.4197H97.4069Z" fill="url(#paint43_linear_1_496)" mask="url(#path-43-inside-22_1_496)"/>
<defs>
<linearGradient id="paint0_linear_1_496" x1="43" y1="61" x2="108" y2="126" gradientUnits="userSpaceOnUse">
<stop stop-color="#83FF64"/>
<stop offset="1" stop-color="#B2E65C"/>
</linearGradient>
<linearGradient id="paint1_linear_1_496" x1="75.5" y1="61" x2="75.5" y2="126" gradientUnits="userSpaceOnUse">
<stop stop-color="#64FFBE" stop-opacity="0"/>
<stop offset="1" stop-color="#5CE6BD"/>
</linearGradient>
<linearGradient id="paint2_linear_1_496" x1="20" y1="2" x2="85" y2="67" gradientUnits="userSpaceOnUse">
<stop stop-color="#83FF64"/>
<stop offset="1" stop-color="#B2E65C"/>
</linearGradient>
<linearGradient id="paint3_linear_1_496" x1="52.5" y1="2" x2="52.5" y2="67" gradientUnits="userSpaceOnUse">
<stop stop-color="#64FFBE" stop-opacity="0"/>
<stop offset="1" stop-color="#5CE6BD"/>
</linearGradient>
<linearGradient id="paint4_linear_1_496" x1="31" y1="0" x2="96" y2="65" gradientUnits="userSpaceOnUse">
<stop stop-color="#83FF64"/>
<stop offset="1" stop-color="#B2E65C"/>
</linearGradient>
<linearGradient id="paint5_linear_1_496" x1="63.5" y1="0" x2="63.5" y2="65" gradientUnits="userSpaceOnUse">
<stop stop-color="#64FFBE" stop-opacity="0"/>
<stop offset="1" stop-color="#5CE6BD"/>
</linearGradient>
<linearGradient id="paint6_linear_1_496" x1="31" y1="63" x2="96" y2="128" gradientUnits="userSpaceOnUse">
<stop stop-color="#83FF64"/>
<stop offset="1" stop-color="#B2E65C"/>
</linearGradient>
<linearGradient id="paint7_linear_1_496" x1="63.5" y1="63" x2="63.5" y2="128" gradientUnits="userSpaceOnUse">
<stop stop-color="#64FFBE" stop-opacity="0"/>
<stop offset="1" stop-color="#5CE6BD"/>
</linearGradient>
<linearGradient id="paint8_linear_1_496" x1="20" y1="61" x2="85" y2="126" gradientUnits="userSpaceOnUse">
<stop stop-color="#83FF64"/>
<stop offset="1" stop-color="#B2E65C"/>
</linearGradient>
<linearGradient id="paint9_linear_1_496" x1="52.5" y1="61" x2="52.5" y2="126" gradientUnits="userSpaceOnUse">
<stop stop-color="#64FFBE" stop-opacity="0"/>
<stop offset="1" stop-color="#5CE6BD"/>
</linearGradient>
<linearGradient id="paint10_linear_1_496" x1="43" y1="2" x2="108" y2="67" gradientUnits="userSpaceOnUse">
<stop stop-color="#83FF64"/>
<stop offset="1" stop-color="#B2E65C"/>
</linearGradient>
<linearGradient id="paint11_linear_1_496" x1="75.5" y1="2" x2="75.5" y2="67" gradientUnits="userSpaceOnUse">
<stop stop-color="#64FFBE" stop-opacity="0"/>
<stop offset="1" stop-color="#5CE6BD"/>
</linearGradient>
<linearGradient id="paint12_linear_1_496" x1="52" y1="8" x2="117" y2="73" gradientUnits="userSpaceOnUse">
<stop stop-color="#83FF64"/>
<stop offset="1" stop-color="#B2E65C"/>
</linearGradient>
<linearGradient id="paint13_linear_1_496" x1="84.5" y1="8" x2="84.5" y2="73" gradientUnits="userSpaceOnUse">
<stop stop-color="#64FFBE" stop-opacity="0"/>
<stop offset="1" stop-color="#5CE6BD"/>
</linearGradient>
<linearGradient id="paint14_linear_1_496" x1="11" y1="56" x2="76" y2="121" gradientUnits="userSpaceOnUse">
<stop stop-color="#83FF64"/>
<stop offset="1" stop-color="#B2E65C"/>
</linearGradient>
<linearGradient id="paint15_linear_1_496" x1="43.5" y1="56" x2="43.5" y2="121" gradientUnits="userSpaceOnUse">
<stop stop-color="#64FFBE" stop-opacity="0"/>
<stop offset="1" stop-color="#5CE6BD"/>
</linearGradient>
<linearGradient id="paint16_linear_1_496" x1="4" y1="48" x2="69" y2="113" gradientUnits="userSpaceOnUse">
<stop stop-color="#83FF64"/>
<stop offset="1" stop-color="#B2E65C"/>
</linearGradient>
<linearGradient id="paint17_linear_1_496" x1="36.5" y1="48" x2="36.5" y2="113" gradientUnits="userSpaceOnUse">
<stop stop-color="#64FFBE" stop-opacity="0"/>
<stop offset="1" stop-color="#5CE6BD"/>
</linearGradient>
<linearGradient id="paint18_linear_1_496" x1="59" y1="16" x2="124" y2="81" gradientUnits="userSpaceOnUse">
<stop stop-color="#83FF64"/>
<stop offset="1" stop-color="#B2E65C"/>
</linearGradient>
<linearGradient id="paint19_linear_1_496" x1="91.5" y1="16" x2="91.5" y2="81" gradientUnits="userSpaceOnUse">
<stop stop-color="#64FFBE" stop-opacity="0"/>
<stop offset="1" stop-color="#5CE6BD"/>
</linearGradient>
<linearGradient id="paint20_linear_1_496" x1="63" y1="26" x2="128" y2="91" gradientUnits="userSpaceOnUse">
<stop stop-color="#83FF64"/>
<stop offset="1" stop-color="#B2E65C"/>
</linearGradient>
<linearGradient id="paint21_linear_1_496" x1="95.5" y1="26" x2="95.5" y2="91" gradientUnits="userSpaceOnUse">
<stop stop-color="#64FFBE" stop-opacity="0"/>
<stop offset="1" stop-color="#5CE6BD"/>
</linearGradient>
<linearGradient id="paint22_linear_1_496" x1="0" y1="37" x2="65" y2="102" gradientUnits="userSpaceOnUse">
<stop stop-color="#83FF64"/>
<stop offset="1" stop-color="#B2E65C"/>
</linearGradient>
<linearGradient id="paint23_linear_1_496" x1="32.5" y1="37" x2="32.5" y2="102" gradientUnits="userSpaceOnUse">
<stop stop-color="#64FFBE" stop-opacity="0"/>
<stop offset="1" stop-color="#5CE6BD"/>
</linearGradient>
<linearGradient id="paint24_linear_1_496" x1="0" y1="26" x2="65" y2="91" gradientUnits="userSpaceOnUse">
<stop stop-color="#83FF64"/>
<stop offset="1" stop-color="#B2E65C"/>
</linearGradient>
<linearGradient id="paint25_linear_1_496" x1="32.5" y1="26" x2="32.5" y2="91" gradientUnits="userSpaceOnUse">
<stop stop-color="#64FFBE" stop-opacity="0"/>
<stop offset="1" stop-color="#5CE6BD"/>
</linearGradient>
<linearGradient id="paint26_linear_1_496" x1="63" y1="37" x2="128" y2="102" gradientUnits="userSpaceOnUse">
<stop stop-color="#83FF64"/>
<stop offset="1" stop-color="#B2E65C"/>
</linearGradient>
<linearGradient id="paint27_linear_1_496" x1="95.5" y1="37" x2="95.5" y2="102" gradientUnits="userSpaceOnUse">
<stop stop-color="#64FFBE" stop-opacity="0"/>
<stop offset="1" stop-color="#5CE6BD"/>
</linearGradient>
<linearGradient id="paint28_linear_1_496" x1="59" y1="48" x2="124" y2="113" gradientUnits="userSpaceOnUse">
<stop stop-color="#83FF64"/>
<stop offset="1" stop-color="#B2E65C"/>
</linearGradient>
<linearGradient id="paint29_linear_1_496" x1="91.5" y1="48" x2="91.5" y2="113" gradientUnits="userSpaceOnUse">
<stop stop-color="#64FFBE" stop-opacity="0"/>
<stop offset="1" stop-color="#5CE6BD"/>
</linearGradient>
<linearGradient id="paint30_linear_1_496" x1="4" y1="16" x2="69" y2="81" gradientUnits="userSpaceOnUse">
<stop stop-color="#83FF64"/>
<stop offset="1" stop-color="#B2E65C"/>
</linearGradient>
<linearGradient id="paint31_linear_1_496" x1="36.5" y1="16" x2="36.5" y2="81" gradientUnits="userSpaceOnUse">
<stop stop-color="#64FFBE" stop-opacity="0"/>
<stop offset="1" stop-color="#5CE6BD"/>
</linearGradient>
<linearGradient id="paint32_linear_1_496" x1="11" y1="8" x2="76" y2="73" gradientUnits="userSpaceOnUse">
<stop stop-color="#83FF64"/>
<stop offset="1" stop-color="#B2E65C"/>
</linearGradient>
<linearGradient id="paint33_linear_1_496" x1="43.5" y1="8" x2="43.5" y2="73" gradientUnits="userSpaceOnUse">
<stop stop-color="#64FFBE" stop-opacity="0"/>
<stop offset="1" stop-color="#5CE6BD"/>
</linearGradient>
<linearGradient id="paint34_linear_1_496" x1="52" y1="56" x2="117" y2="121" gradientUnits="userSpaceOnUse">
<stop stop-color="#83FF64"/>
<stop offset="1" stop-color="#B2E65C"/>
</linearGradient>
<linearGradient id="paint35_linear_1_496" x1="84.5" y1="56" x2="84.5" y2="121" gradientUnits="userSpaceOnUse">
<stop stop-color="#64FFBE" stop-opacity="0"/>
<stop offset="1" stop-color="#5CE6BD"/>
</linearGradient>
<linearGradient id="paint36_linear_1_496" x1="43" y1="61" x2="108" y2="126" gradientUnits="userSpaceOnUse">
<stop stop-color="#83FF64"/>
<stop offset="1" stop-color="#B2E65C"/>
</linearGradient>
<linearGradient id="paint37_linear_1_496" x1="75.5" y1="61" x2="75.5" y2="126" gradientUnits="userSpaceOnUse">
<stop stop-color="#64FFBE" stop-opacity="0"/>
<stop offset="1" stop-color="#5CE6BD"/>
</linearGradient>
<linearGradient id="paint38_linear_1_496" x1="20" y1="2" x2="85" y2="67" gradientUnits="userSpaceOnUse">
<stop stop-color="#83FF64"/>
<stop offset="1" stop-color="#B2E65C"/>
</linearGradient>
<linearGradient id="paint39_linear_1_496" x1="52.5" y1="2" x2="52.5" y2="67" gradientUnits="userSpaceOnUse">
<stop stop-color="#64FFBE" stop-opacity="0"/>
<stop offset="1" stop-color="#5CE6BD"/>
</linearGradient>
<linearGradient id="paint40_linear_1_496" x1="31" y1="0" x2="96" y2="65" gradientUnits="userSpaceOnUse">
<stop stop-color="#83FF64"/>
<stop offset="1" stop-color="#B2E65C"/>
</linearGradient>
<linearGradient id="paint41_linear_1_496" x1="63.5" y1="0" x2="63.5" y2="65" gradientUnits="userSpaceOnUse">
<stop stop-color="#64FFBE" stop-opacity="0"/>
<stop offset="1" stop-color="#5CE6BD"/>
</linearGradient>
<linearGradient id="paint42_linear_1_496" x1="31" y1="63" x2="96" y2="128" gradientUnits="userSpaceOnUse">
<stop stop-color="#83FF64"/>
<stop offset="1" stop-color="#B2E65C"/>
</linearGradient>
<linearGradient id="paint43_linear_1_496" x1="63.5" y1="63" x2="63.5" y2="128" gradientUnits="userSpaceOnUse">
<stop stop-color="#64FFBE" stop-opacity="0"/>
<stop offset="1" stop-color="#5CE6BD"/>
</linearGradient>
</defs>
</svg>
